<svg width="36" height="36" viewBox="0 0 36 36" fill="none" xmlns="http://www.w3.org/2000/svg">
<g clip-path="url(#clip0_22_372)">
<path d="M14.3789 32.316V35.9621L13.4973 35.2499C13.361 35.1398 10.1198 32.5083 6.83295 28.7347C2.29889 23.5291 0 18.8564 0 14.8466V14.4492C0 6.52066 6.45035 0.0703125 14.3789 0.0703125C22.3075 0.0703125 28.7578 6.52066 28.7578 14.4492V14.8466C28.7578 15.1834 28.74 15.5253 28.7076 15.8714L25.8956 13.3061C25.3196 7.45917 20.3747 2.87595 14.3789 2.87595C7.9975 2.87595 2.80563 8.06781 2.80563 14.4492V14.8466C2.80563 21.6225 11.5359 29.8251 14.3789 32.316ZM23.0062 30.3008H27.2145V26.0925H23.0062V30.3008ZM14.3789 8.48721C17.6663 8.48721 20.3409 11.1618 20.3409 14.4492C20.3409 17.7366 17.6663 20.4112 14.3789 20.4112C11.0915 20.4112 8.4169 17.7366 8.4169 14.4492C8.4169 11.1618 11.0915 8.48721 14.3789 8.48721ZM14.3789 11.2928C12.6384 11.2928 11.2225 12.7087 11.2225 14.4492C11.2225 16.1895 12.6384 17.6056 14.3789 17.6056C16.1191 17.6056 17.5353 16.1895 17.5353 14.4492C17.5353 12.7087 16.1191 11.2928 14.3789 11.2928ZM34.1093 28.3944L33.3204 27.6748V32.179C33.3204 34.2762 31.614 35.9824 29.5167 35.9824H20.634C18.5367 35.9824 16.8302 34.2762 16.8302 32.179V27.6748L16.0414 28.3944L14.1507 26.3219L25.0752 16.3553L36 26.3219L34.1093 28.3944ZM30.5148 25.1153L25.0752 20.153L19.6359 25.1153V32.1787C19.6359 32.7291 20.0836 33.1768 20.634 33.1768H29.5167C30.0671 33.1768 30.5148 32.7291 30.5148 32.1787V25.1153Z" fill="white"/>
</g>
<defs>
<clipPath id="clip0_22_372">
<rect width="36" height="36" fill="white"/>
</clipPath>
</defs>
</svg>
