<!-- icon666.com - MILLIONS vector ICONS FREE --><svg id="Layer_1" viewBox="0 0 32 32" xmlns="http://www.w3.org/2000/svg"><path d="m10.146 3.892c-.35.008-.675.191-.865.486l-4.867 7.342h-3.425c-1.388.104-1.28 2.174.11 2.133h2.816v9.285c0 2.733 2.229 4.971 4.956 4.971h14.257c2.729 0 4.957-2.236 4.957-4.971v-9.285h2.823c1.453.031 1.453-2.164 0-2.133h-3.313l-4.867-7.342c-.197-.306-.535-.486-.897-.486-.856-.002-1.365.959-.883 1.666l4.091 6.162h-18.067l4.09-6.162c.493-.719-.042-1.695-.916-1.666zm-4.097 9.961h19.904v9.285c0 1.596-1.244 2.838-2.824 2.838h-14.256c-1.579 0-2.824-1.242-2.824-2.838zm8.89 4.105v3.91c-.002.59.475 1.068 1.063 1.069.589.002 1.067-.474 1.068-1.067v-3.912c.007-.589-.465-1.072-1.069-1.077-.602.011-1.069.491-1.062 1.077zm5.184 0v3.91c-.002.59.475 1.068 1.063 1.07s1.068-.475 1.07-1.067v-3.913c.006-.589-.466-1.072-1.071-1.077-.6.011-1.068.491-1.062 1.077zm-10.369 0v3.91c0 .59.477 1.067 1.064 1.067s1.067-.478 1.067-1.067v-3.91c.006-.588-.466-1.07-1.069-1.076-.601.01-1.068.49-1.062 1.076z" fill="#000000" style="fill: rgb(51, 106, 53);"></path></svg>