<svg width="42" height="42" viewBox="0 0 42 42" fill="none" xmlns="http://www.w3.org/2000/svg">
<path d="M13.3158 5.25083C12.8564 5.26133 12.4298 5.50152 12.1805 5.8887L5.79252 15.5251H1.29721C-0.524538 15.6616 -0.382788 18.3785 1.44159 18.3246H5.13759V30.5112C5.13759 34.0983 8.06315 37.0356 11.6423 37.0356H30.3546C33.9365 37.0356 36.8607 34.1009 36.8607 30.5112V18.3246H40.5659C42.473 18.3653 42.473 15.4844 40.5659 15.5251H36.2176L29.8296 5.8887C29.5711 5.48708 29.1275 5.25083 28.6523 5.25083C27.5288 5.2482 26.8608 6.50952 27.4934 7.43745L32.8628 15.5251H9.1499L14.518 7.43745C15.1651 6.49377 14.4629 5.21277 13.3158 5.25083ZM7.93846 18.3246H34.0625V30.5112C34.0625 32.606 32.4297 34.2361 30.356 34.2361H11.645C9.57253 34.2361 7.93846 32.606 7.93846 30.5112V18.3246ZM19.6066 23.7125V28.8443C19.604 29.6187 20.23 30.2461 21.0018 30.2474C21.7748 30.25 22.4022 29.6253 22.4035 28.847V23.7125C22.4127 22.9394 21.7932 22.3055 21.0005 22.2989C20.2103 22.3133 19.5974 22.9433 19.6066 23.7125ZM26.4106 23.7125V28.8443C26.408 29.6187 27.034 30.2461 27.8058 30.2487C28.5775 30.2513 29.2075 29.6253 29.2101 28.8483V23.7125C29.218 22.9394 28.5985 22.3055 27.8045 22.2989C27.017 22.3133 26.4027 22.9433 26.4106 23.7125ZM12.8013 23.7125V28.8443C12.8013 29.6187 13.4273 30.2448 14.1978 30.2448C14.9682 30.2448 15.5982 29.6174 15.5982 28.8443V23.7125C15.6061 22.9407 14.9866 22.3081 14.1952 22.3002C13.4063 22.3133 12.7934 22.9433 12.8013 23.7125Z" fill="#336A35"/>
</svg>
