<svg width="42" height="42" viewBox="0 0 42 42" fill="none" xmlns="http://www.w3.org/2000/svg">
<g clip-path="url(#clip0_22_400)">
<path d="M22.265 20.4817L22.2305 11.97L19.7695 11.98L19.8083 21.5181L28.8144 30.3649L30.5389 28.6094L22.265 20.4817Z" fill="white"/>
<path d="M35.8493 6.1507C31.8828 2.18441 26.6093 0 21 0C15.3907 0 10.1172 2.18441 6.1507 6.15079C2.18441 10.1172 0 15.3908 0 21C0 26.6092 2.18441 31.8828 6.15079 35.8492C10.1172 39.8156 15.3907 42 21 42C26.6093 42 31.8828 39.8157 35.8493 35.8493C39.8156 31.8828 42 26.6092 42 21C42 15.3907 39.8156 10.1172 35.8493 6.1507ZM34.9501 33.2099L32.6275 30.8874L30.8874 32.6276L33.2099 34.9501C30.1364 37.6478 26.3114 39.2322 22.2305 39.4979V36.2134H19.7695V39.4979C15.6886 39.2322 11.8636 37.6478 8.79006 34.95L11.1125 32.6275L9.3724 30.8874L7.04993 33.2099C4.35217 30.1363 2.76782 26.3114 2.50212 22.2305H5.78665V19.7695H2.50212C2.76782 15.6886 4.35217 11.8636 7.05001 8.79006L9.37248 11.1125L11.1126 9.3724L8.79014 7.04993C11.8636 4.35217 15.6886 2.76782 19.7695 2.50212V5.59404H22.2305V2.50212C26.3114 2.76782 30.1364 4.35217 33.2099 7.04993L31.0236 9.23631L32.7637 10.9764L34.9501 8.79006C37.6479 11.8636 39.2323 15.6886 39.4979 19.7695H36.2134V22.2305H39.4979C39.2323 26.3114 37.6479 30.1364 34.9501 33.2099Z" fill="white"/>
</g>
<defs>
<clipPath id="clip0_22_400">
<rect width="42" height="42" fill="white"/>
</clipPath>
</defs>
</svg>
