<!-- icon666.com - MILLIONS vector ICONS FREE --><svg xmlns="http://www.w3.org/2000/svg" xmlns:xlink="http://www.w3.org/1999/xlink" version="1.1" id="Eco" x="0px" y="0px" viewBox="0 0 1000 1000" style="enable-background:new 0 0 1000 1000;" xml:space="preserve"><style type="text/css"> .st0{fill:rgb(0,0,0);} </style><g><path class="st0" d="M847.9,526.2c7.2-6.9,11.4-16.7,11.4-26.9c0-10.1-4-19.5-11.4-26.5c0,0,0,0,0,0l-36.6-35.1l20.6-46.7 c0,0,0,0,0,0c4.1-9.3,4.2-20,0.3-29.5c-3.8-9.2-11.2-16.4-20.9-20.1c0,0,0,0,0,0l-47.3-18.3l1.1-50.7c0,0,0,0,0,0 c0.2-10.1-3.7-20-10.8-27.2c-7.2-7.2-16.8-11.1-26.8-10.9c0,0,0,0,0,0c0,0,0,0,0,0l-51,1.5l-18.2-47.7c0,0,0,0,0,0c0,0,0,0,0,0 c-3.6-9.4-11.1-17-20.5-20.9c-9.2-3.8-19.1-3.6-28.6,0.7c0,0,0,0,0,0l-46.7,20.5l-35.1-37c0,0,0,0,0,0c0,0,0,0,0,0 c-7.2-7.6-17-11.9-27-11.9c-9.8,0-19.3,4.2-26.6,11.9c0,0,0,0,0,0c0,0,0,0,0,0l-35.1,37l-46.7-20.5c0,0,0,0,0,0 c-9.6-4.2-19.9-4.5-29.1-0.7c-9.2,3.8-16.4,11.2-20.1,20.9c0,0,0,0,0,0c0,0,0,0,0,0l-18.2,47.7l-51-1.5c0,0,0,0,0,0c0,0,0,0,0,0 c-10.2-0.2-20.1,3.7-27.2,10.9c-7,7-10.7,16.6-10.4,27.2c0,0,0,0,0,0l1.1,50.7l-47.3,18.3c0,0,0,0,0,0c-9.9,3.8-17.5,11-21.3,20.1 c-3.8,9.2-3.5,19.9,0.7,29.5c0,0,0,0,0,0l0,0c0,0,0,0,0,0c0,0,0,0,0,0l20.5,46.7l-36.6,35.1c0,0,0,0,0,0 c-7.6,7.3-11.8,16.7-11.8,26.5c0,9.9,4.3,19.7,11.8,26.9c0,0,0,0,0,0l36.6,35.1l-20.5,46.3c0,0,0,0,0,0c-4.3,9.6-4.5,20-0.7,29.1 c3.9,9.3,11.6,16.8,21.3,20.5c0,0,0,0,0,0l0,0c0,0,0,0,0,0c0,0,0,0,0,0l47.3,18.3l-1.1,50.7c0,0,0,0,0,0 c-0.2,10.6,3.5,20.2,10.4,27.2c6.9,6.9,16.5,10.9,26.3,10.9c0.2,0,0.4,0,0.6,0c0.1,0,0.2,0,0.3,0l51.1-1.1l18.3,47.3c0,0,0,0,0,0 l0,0l0,0c0,0,0,0,0,0c3.7,9.6,10.9,17.1,20.1,20.9c4.6,1.9,9.4,2.8,14.3,2.8c5.1,0,10.2-1,14.9-3.1c0,0,0,0,0,0c0,0,0,0,0,0 l46.6-20.9l35.1,36.9c0,0,0,0,0,0c0,0,0,0,0,0c7,7.4,16.5,11.5,26.6,11.5c10.2,0,20.1-4.2,27-11.5c0,0,0,0,0,0c0,0,0,0,0,0 l35.1-36.9l46.6,20.9c0,0,0,0,0,0c0,0,0,0,0,0c4.7,2.1,9.7,3.1,14.7,3.1c4.7,0,9.5-0.9,14.1-2.8c9.5-3.9,16.9-11.5,20.5-20.8 c0.1-0.2,0.1-0.4,0.2-0.6l18-46.8l51.1,1.1c0.1,0,0.2,0,0.3,0c0.2,0,0.4,0,0.6,0c9.7,0,18.9-3.8,25.9-10.9 c7.1-7.1,11.1-17,10.9-27.2c0,0,0,0,0,0l-1.1-50.7l47.3-18.3c0,0,0,0,0,0c9.4-3.6,17-11.1,20.8-20.5c3.9-9.4,3.8-20-0.3-29.1 c0,0,0,0,0,0l-20.5-46.3L847.9,526.2C847.9,526.3,847.9,526.2,847.9,526.2z M824.3,501.7l-40.5,38.9c-0.1,0.1-0.1,0.1-0.2,0.2 c-0.2,0.2-0.5,0.5-0.7,0.7c-0.2,0.2-0.3,0.3-0.5,0.5c-0.2,0.2-0.4,0.5-0.6,0.8c-0.1,0.2-0.3,0.4-0.4,0.6c-0.2,0.2-0.3,0.5-0.5,0.8 c-0.1,0.2-0.3,0.5-0.4,0.7c-0.1,0.2-0.2,0.5-0.4,0.7c-0.1,0.3-0.3,0.5-0.4,0.8c-0.1,0.2-0.2,0.5-0.3,0.7c-0.1,0.3-0.2,0.6-0.3,0.9 c-0.1,0.2-0.1,0.4-0.2,0.7c-0.1,0.3-0.2,0.6-0.2,1c0,0.1,0,0.2-0.1,0.3c-0.5,3-1.2,6.3-2,9.8c0,0.1,0,0.2,0,0.3 c-0.1,0.3-0.1,0.7-0.2,1c0,0.2-0.1,0.5-0.1,0.7c0,0.3,0,0.6-0.1,1c0,0.2,0,0.5,0,0.7c0,0.3,0,0.6,0,0.9c0,0.3,0,0.5,0.1,0.8 c0,0.3,0.1,0.5,0.1,0.8c0,0.3,0.1,0.6,0.1,0.9c0,0.2,0.1,0.5,0.2,0.7c0.1,0.3,0.2,0.6,0.2,0.9c0.1,0.2,0.2,0.4,0.2,0.7 c0.1,0.3,0.2,0.6,0.4,0.9c0,0.1,0.1,0.2,0.1,0.3l22.8,51.3c0,0,0,0,0,0c0.4,0.9,0.2,1.8,0,2.4c-0.3,0.8-1,1.5-1.7,1.8c0,0,0,0,0,0 c0,0,0,0,0,0l-52.5,20.3c-0.1,0-0.2,0.1-0.3,0.1c-0.3,0.1-0.6,0.3-0.9,0.4c-0.2,0.1-0.4,0.2-0.7,0.3c-0.3,0.1-0.5,0.3-0.8,0.5 c-0.2,0.1-0.4,0.3-0.6,0.4c-0.2,0.2-0.5,0.3-0.7,0.5c-0.2,0.2-0.4,0.3-0.6,0.5c-0.2,0.2-0.4,0.4-0.6,0.5c-0.2,0.2-0.4,0.4-0.6,0.6 c-0.2,0.2-0.3,0.4-0.5,0.6c-0.2,0.2-0.4,0.5-0.6,0.7c-0.2,0.2-0.3,0.4-0.4,0.6c-0.2,0.3-0.4,0.5-0.6,0.8c-0.1,0.1-0.1,0.2-0.2,0.2 c-1.9,3-3.7,5.6-5.5,8.2c-0.1,0.1-0.1,0.2-0.1,0.2c-0.2,0.3-0.4,0.6-0.5,0.8c-0.1,0.2-0.2,0.4-0.3,0.6c-0.1,0.3-0.3,0.6-0.4,0.9 c-0.1,0.2-0.2,0.4-0.3,0.7c-0.1,0.3-0.2,0.5-0.3,0.8c-0.1,0.3-0.2,0.5-0.3,0.8c-0.1,0.3-0.1,0.5-0.2,0.8c-0.1,0.3-0.1,0.6-0.2,0.9 c0,0.2-0.1,0.5-0.1,0.7c0,0.3-0.1,0.6-0.1,0.9c0,0.2,0,0.5,0,0.7c0,0.3,0,0.7,0,1c0,0.1,0,0.2,0,0.3L731,727c0,0,0,0,0,0 c0,0,0,0,0,0c0,0.9-0.3,1.8-0.9,2.4c-0.8,0.8-1.4,0.9-2,0.9c0,0,0,0,0,0c0,0,0,0,0,0l-56.7-1.2c-0.1,0-0.2,0-0.3,0 c-0.3,0-0.6,0-0.9,0c-0.3,0-0.6,0-0.9,0.1c-0.2,0-0.4,0-0.5,0.1c-0.4,0.1-0.8,0.1-1.2,0.2c-0.1,0-0.2,0-0.3,0.1 c-0.5,0.1-0.9,0.2-1.4,0.4c0,0-0.1,0-0.1,0c-0.5,0.2-1,0.3-1.5,0.6c0,0,0,0-0.1,0c-0.5,0.2-1,0.5-1.5,0.7c0,0-0.1,0-0.1,0 c-0.5,0.3-0.9,0.5-1.3,0.8c0,0,0,0-0.1,0c-2.5,1.7-5.1,3.4-8.2,5.5c-0.1,0-0.1,0.1-0.2,0.2c-0.3,0.2-0.6,0.4-0.8,0.6 c-0.2,0.1-0.4,0.3-0.5,0.4c-0.2,0.2-0.5,0.4-0.7,0.6c-0.2,0.2-0.4,0.3-0.5,0.5c-0.2,0.2-0.4,0.4-0.6,0.7c-0.2,0.2-0.4,0.4-0.5,0.6 c-0.2,0.2-0.3,0.4-0.5,0.6c-0.2,0.2-0.3,0.5-0.5,0.7c-0.1,0.2-0.3,0.4-0.4,0.6c-0.2,0.3-0.3,0.5-0.5,0.8c-0.1,0.2-0.2,0.4-0.3,0.6 c-0.1,0.3-0.3,0.6-0.4,0.9c0,0.1-0.1,0.2-0.1,0.3l-20.3,52.5c0,0.1-0.1,0.2-0.1,0.3c-0.3,0.6-0.9,1.1-1.7,1.5 c-0.9,0.4-1.3,0.3-1.9,0l-51.7-23.1c-0.1,0-0.2-0.1-0.3-0.1c-0.3-0.1-0.6-0.2-0.9-0.4c-0.2-0.1-0.5-0.2-0.7-0.2 c-0.3-0.1-0.6-0.2-0.9-0.3c-0.2-0.1-0.5-0.1-0.7-0.2c-0.3-0.1-0.6-0.1-0.9-0.1c-0.3,0-0.5-0.1-0.8-0.1c-0.3,0-0.5,0-0.8-0.1 c-0.3,0-0.6,0-0.9,0c-0.3,0-0.5,0-0.8,0c-0.3,0-0.6,0-0.9,0.1c-0.2,0-0.5,0.1-0.7,0.1c-0.3,0-0.7,0.1-1,0.2c-0.1,0-0.2,0-0.3,0.1 c-3.4,0.7-6.7,1.4-9.8,2c-0.1,0-0.2,0-0.3,0.1c-0.3,0.1-0.7,0.1-1,0.2c-0.2,0.1-0.4,0.1-0.6,0.2c-0.3,0.1-0.6,0.2-0.9,0.3 c-0.2,0.1-0.4,0.2-0.7,0.3c-0.3,0.1-0.6,0.2-0.8,0.4c-0.2,0.1-0.5,0.2-0.7,0.3c-0.2,0.1-0.5,0.3-0.7,0.4c-0.2,0.1-0.5,0.3-0.7,0.5 c-0.2,0.1-0.4,0.3-0.6,0.5c-0.2,0.2-0.5,0.4-0.7,0.6c-0.2,0.2-0.4,0.3-0.5,0.5c-0.2,0.2-0.5,0.4-0.7,0.7c-0.1,0.1-0.1,0.1-0.2,0.2 l-38.9,40.9c0,0,0,0,0,0c-0.5,0.6-1.5,0.9-2.4,0.9c-0.6,0-1.2-0.1-2-0.9l-38.9-40.9c-0.1-0.1-0.1-0.1-0.2-0.2 c-0.2-0.2-0.5-0.5-0.7-0.7c-0.2-0.2-0.3-0.3-0.5-0.5c-0.2-0.2-0.5-0.4-0.8-0.6c-0.2-0.1-0.4-0.3-0.6-0.4c-0.2-0.2-0.5-0.3-0.8-0.5 c-0.2-0.1-0.5-0.3-0.7-0.4c-0.2-0.1-0.5-0.2-0.7-0.4c-0.3-0.1-0.5-0.2-0.8-0.4c-0.2-0.1-0.5-0.2-0.7-0.3c-0.3-0.1-0.6-0.2-0.9-0.3 c-0.2-0.1-0.5-0.1-0.7-0.2c-0.3-0.1-0.6-0.2-0.9-0.2c-0.1,0-0.2-0.1-0.3-0.1c-3.1-0.6-6.4-1.2-9.8-2c-0.1,0-0.2,0-0.3-0.1 c-0.3-0.1-0.6-0.1-0.9-0.2c-0.2,0-0.5-0.1-0.7-0.1c-0.3,0-0.6,0-0.9-0.1c-0.3,0-0.5,0-0.8,0c-0.3,0-0.6,0-0.9,0 c-0.3,0-0.5,0-0.8,0.1c-0.3,0-0.5,0.1-0.8,0.1c-0.3,0-0.6,0.1-0.8,0.1c-0.3,0.1-0.5,0.1-0.8,0.2c-0.3,0.1-0.6,0.2-0.9,0.2 c-0.2,0.1-0.5,0.2-0.7,0.2c-0.3,0.1-0.6,0.2-0.9,0.3c-0.1,0-0.2,0.1-0.3,0.1L377.9,800c-0.9,0.4-1.8,0.2-2.3,0 c-0.2-0.1-0.9-0.4-1.4-1.7l0,0l0,0l-20.3-52.5c0-0.1-0.1-0.2-0.1-0.3c-0.1-0.3-0.3-0.6-0.4-0.9c-0.1-0.2-0.2-0.4-0.3-0.6 c-0.1-0.3-0.3-0.5-0.5-0.8c-0.1-0.2-0.3-0.4-0.4-0.6c-0.2-0.2-0.3-0.5-0.5-0.7c-0.2-0.2-0.3-0.4-0.5-0.7c-0.2-0.2-0.3-0.4-0.5-0.6 c-0.2-0.2-0.4-0.4-0.6-0.7c-0.2-0.2-0.3-0.3-0.5-0.5c-0.2-0.2-0.5-0.4-0.7-0.6c-0.2-0.1-0.4-0.3-0.5-0.4c-0.3-0.2-0.5-0.4-0.8-0.6 c-0.1-0.1-0.1-0.1-0.2-0.2c-3-2-5.7-3.7-8.2-5.5c-0.1-0.1-0.2-0.1-0.2-0.1c-0.3-0.2-0.6-0.4-0.9-0.6c-0.2-0.1-0.4-0.2-0.5-0.3 c-0.3-0.2-0.6-0.3-1-0.5c-0.2-0.1-0.4-0.2-0.5-0.2c-0.3-0.1-0.7-0.3-1-0.4c-0.2-0.1-0.4-0.1-0.6-0.2c-0.3-0.1-0.7-0.2-1-0.3 c-0.2-0.1-0.4-0.1-0.6-0.1c-0.3-0.1-0.6-0.1-0.9-0.1c-0.3,0-0.5-0.1-0.8-0.1c-0.3,0-0.5,0-0.8,0c-0.3,0-0.6,0-0.9,0 c-0.1,0-0.2,0-0.3,0l-56.7,1.2c0,0,0,0,0,0c0,0,0,0,0,0c-0.8,0-1.8-0.3-2.4-0.9c-0.2-0.2-0.5-1-0.5-2.4c0,0,0,0,0,0l0,0l1.2-56.3 c0-0.1,0-0.2,0-0.3c0-0.3,0-0.7,0-1c0-0.2,0-0.5,0-0.7c0-0.3-0.1-0.6-0.1-1c0-0.2-0.1-0.5-0.1-0.7c-0.1-0.3-0.1-0.6-0.2-0.9 c-0.1-0.3-0.1-0.5-0.2-0.8c-0.1-0.3-0.2-0.5-0.3-0.8c-0.1-0.3-0.2-0.5-0.3-0.8c-0.1-0.2-0.2-0.5-0.3-0.7c-0.1-0.3-0.3-0.6-0.4-0.9 c-0.1-0.2-0.2-0.4-0.4-0.6c-0.2-0.3-0.3-0.6-0.5-0.8c-0.1-0.1-0.1-0.2-0.1-0.2c-1.3-1.8-2.5-3.8-3.8-5.8c-0.5-0.8-1-1.6-1.5-2.4 c-2.3-3.5-5.6-5.9-9.4-7.1l-51.5-19.9c0,0,0,0,0,0c0,0,0,0,0,0c-1.1-0.4-1.9-1.3-2.1-1.8c-0.2-0.4-0.1-1.3,0.4-2.3l0,0l22.7-51.3 c0-0.1,0.1-0.2,0.1-0.3c0.1-0.3,0.2-0.6,0.4-0.9c0.1-0.2,0.2-0.4,0.2-0.7c0.1-0.3,0.2-0.6,0.2-0.9c0.1-0.2,0.1-0.5,0.2-0.7 c0.1-0.3,0.1-0.6,0.1-0.9c0-0.3,0.1-0.5,0.1-0.8s0-0.5,0.1-0.8c0-0.3,0-0.6,0-0.9c0-0.2,0-0.5,0-0.7c0-0.3,0-0.6-0.1-0.9 c0-0.2-0.1-0.5-0.1-0.7c0-0.3-0.1-0.7-0.2-1c0-0.1,0-0.2,0-0.3c-0.7-3.4-1.4-6.6-2-9.8c0-0.1,0-0.2-0.1-0.2c-0.1-0.3-0.1-0.6-0.2-1 c-0.1-0.2-0.1-0.5-0.2-0.7c-0.1-0.3-0.2-0.6-0.3-0.9c-0.1-0.2-0.2-0.5-0.3-0.7c-0.1-0.3-0.2-0.5-0.4-0.8c-0.1-0.2-0.2-0.5-0.4-0.7 c-0.1-0.2-0.3-0.5-0.4-0.7c-0.2-0.3-0.3-0.5-0.5-0.8c-0.1-0.2-0.3-0.4-0.4-0.6c-0.2-0.3-0.4-0.5-0.6-0.8c-0.1-0.2-0.3-0.3-0.5-0.5 c-0.2-0.2-0.4-0.5-0.7-0.7c-0.1-0.1-0.1-0.1-0.2-0.2l-40.5-38.9c0,0,0,0,0,0c0,0,0,0,0,0c-0.9-0.9-1.3-2-1.3-2.4 c0-0.1,0.2-0.9,1.3-2c0,0,0,0,0,0c0,0,0,0,0,0l40.5-38.9c0,0,0,0,0.1-0.1c0.4-0.4,0.8-0.8,1.1-1.2c0,0,0.1-0.1,0.1-0.1 c0.3-0.4,0.6-0.7,0.9-1.1c0.1-0.1,0.2-0.3,0.3-0.5c0.2-0.3,0.4-0.6,0.5-0.9c0.1-0.2,0.2-0.4,0.3-0.6c0.1-0.3,0.3-0.5,0.4-0.8 c0.1-0.2,0.2-0.4,0.3-0.6c0.1-0.3,0.2-0.5,0.3-0.8c0.1-0.2,0.2-0.5,0.2-0.7c0.1-0.3,0.1-0.5,0.2-0.8c0.1-0.3,0.1-0.5,0.2-0.8 c0-0.1,0-0.2,0.1-0.3c0.6-3.1,1.2-6.4,2-9.8c0-0.1,0-0.2,0-0.3c0.1-0.3,0.1-0.7,0.2-1c0-0.2,0.1-0.5,0.1-0.7c0-0.3,0-0.6,0.1-0.9 c0-0.2,0-0.5,0-0.7c0-0.3,0-0.6,0-0.9c0-0.3,0-0.5-0.1-0.8c0-0.3-0.1-0.5-0.1-0.8c0-0.3-0.1-0.6-0.1-0.9c0-0.2-0.1-0.5-0.2-0.7 c-0.1-0.3-0.2-0.6-0.3-0.9c-0.1-0.2-0.1-0.4-0.2-0.6c-0.1-0.3-0.2-0.6-0.4-0.9c0-0.1-0.1-0.2-0.1-0.2l-22.7-51.7c0,0,0,0,0,0 c0,0,0,0,0,0c-0.5-1.2-0.5-2.4-0.4-2.7c0.1-0.2,0.7-0.8,2.1-1.4c0,0,0,0,0,0l52.5-20.3c0.5-0.2,1-0.4,1.5-0.7 c0.1,0,0.2-0.1,0.2-0.1c0.4-0.2,0.9-0.5,1.3-0.7c0.1,0,0.2-0.1,0.2-0.2c0.4-0.2,0.7-0.5,1.1-0.8c0.1,0,0.1-0.1,0.2-0.1 c0.4-0.3,0.7-0.6,1.1-0.9c0.1-0.1,0.2-0.2,0.3-0.3c0.3-0.3,0.6-0.6,0.9-0.9c0-0.1,0.1-0.1,0.1-0.1c0.3-0.4,0.6-0.7,0.9-1.1 c0.1-0.1,0.2-0.2,0.3-0.4c0.1-0.1,0.2-0.2,0.2-0.3c1.9-3,3.7-5.7,5.5-8.2c0.1-0.1,0.1-0.2,0.1-0.2c0.2-0.3,0.4-0.6,0.5-0.8 c0.1-0.2,0.2-0.4,0.4-0.6c0.1-0.3,0.3-0.6,0.4-0.9c0.1-0.2,0.2-0.4,0.3-0.7c0.1-0.3,0.2-0.5,0.3-0.8c0.1-0.3,0.2-0.5,0.3-0.8 c0.1-0.3,0.1-0.5,0.2-0.8c0.1-0.3,0.1-0.6,0.2-0.9c0-0.2,0.1-0.5,0.1-0.7c0-0.3,0.1-0.6,0.1-1c0-0.2,0-0.5,0-0.7c0-0.3,0-0.7,0-1 c0-0.1,0-0.2,0-0.3l-1.2-56.3c0,0,0,0,0,0c0,0,0,0,0,0c0-1.4,0.3-2.2,0.5-2.4c0.6-0.6,1.5-0.9,2.4-0.9l56.6,1.7c0.1,0,0.3,0,0.4,0 c0,0,0.1,0,0.1,0c0.5,0,1,0,1.5-0.1c0.1,0,0.3,0,0.4,0c0.4,0,0.8-0.1,1.2-0.2c0.1,0,0.3,0,0.4-0.1c0.4-0.1,0.9-0.2,1.3-0.3 c0,0,0.1,0,0.1,0c0.5-0.1,0.9-0.3,1.4-0.5c0.2-0.1,0.3-0.1,0.4-0.2c0.3-0.1,0.6-0.3,0.9-0.4c0.2-0.1,0.3-0.2,0.5-0.3 c0.3-0.1,0.5-0.3,0.8-0.5c0.2-0.1,0.3-0.2,0.5-0.3c0.1,0,0.1-0.1,0.2-0.1c2.5-1.7,5.2-3.5,8.2-5.5c0,0,0.1-0.1,0.1-0.1 c0.4-0.3,0.9-0.6,1.3-0.9c0,0,0,0,0.1,0c0.4-0.3,0.7-0.6,1.1-1c0.1-0.1,0.2-0.2,0.3-0.3c0.3-0.3,0.5-0.6,0.8-0.8 c0.1-0.1,0.2-0.2,0.3-0.3c0.3-0.4,0.6-0.8,0.9-1.2c0,0,0,0,0,0c0.3-0.4,0.5-0.8,0.8-1.2c0.1-0.2,0.2-0.3,0.2-0.5 c0.1-0.3,0.3-0.6,0.4-0.9c0.1-0.2,0.2-0.4,0.2-0.5c0-0.1,0.1-0.2,0.2-0.4l20.3-52.9c0,0,0,0,0,0c0.5-1.4,1.1-1.6,1.4-1.7 c0.4-0.2,1.3-0.1,2.3,0.4c0,0,0,0,0,0c0,0,0,0,0,0l51.6,22.7c0,0,0,0,0,0l0.1,0.1c0.1,0,0.1,0,0.2,0.1c0.4,0.2,0.9,0.3,1.3,0.5 c0.2,0.1,0.3,0.1,0.5,0.1c0.4,0.1,0.7,0.2,1.1,0.3c0.2,0,0.3,0.1,0.5,0.1c0.4,0.1,0.8,0.1,1.2,0.2c0.1,0,0.3,0,0.4,0.1 c0.5,0.1,1.1,0.1,1.6,0.1c0,0,0,0,0,0s0,0,0,0c0.5,0,1.1,0,1.6-0.1c0.1,0,0.2,0,0.4,0c0.6-0.1,1.1-0.1,1.7-0.3 c3.5-0.7,6.7-1.4,9.7-2c0,0,0.1,0,0.1,0c0.3-0.1,0.6-0.1,1-0.2c0.2-0.1,0.5-0.1,0.7-0.2c0.3-0.1,0.6-0.2,0.9-0.3 c0.3-0.1,0.5-0.2,0.8-0.3c0.2-0.1,0.5-0.2,0.7-0.3c0.3-0.1,0.6-0.3,0.8-0.4c0.2-0.1,0.4-0.2,0.6-0.4c0.3-0.2,0.6-0.3,0.8-0.5 c0.2-0.1,0.4-0.3,0.6-0.4c0.3-0.2,0.6-0.4,0.8-0.6c0.2-0.1,0.3-0.3,0.5-0.4c0.3-0.2,0.5-0.5,0.8-0.7c0.1-0.1,0.1-0.1,0.2-0.2 l38.9-40.9c1-1,1.8-1.3,2-1.3c0.4,0,1.5,0.4,2.4,1.3l38.9,40.9c0.1,0.1,0.1,0.1,0.2,0.2c0.2,0.3,0.5,0.5,0.8,0.7 c0.2,0.2,0.3,0.3,0.5,0.4c0.3,0.2,0.5,0.4,0.8,0.6c0.2,0.1,0.4,0.3,0.6,0.4c0.3,0.2,0.5,0.3,0.8,0.5c0.2,0.1,0.4,0.3,0.6,0.4 c0.3,0.1,0.5,0.3,0.8,0.4c0.2,0.1,0.5,0.2,0.7,0.3c0.2,0.1,0.5,0.2,0.7,0.3c0.3,0.1,0.6,0.2,0.9,0.3c0.2,0.1,0.5,0.1,0.7,0.2 c0.3,0.1,0.6,0.2,1,0.2c0.1,0,0.1,0,0.2,0c2.9,0.5,6.1,1.2,9.7,1.9c0,0,0,0,0,0c0,0,0,0,0,0c0,0,0,0,0,0c0.5,0.1,1.1,0.2,1.6,0.3 c0.1,0,0.3,0,0.4,0c0.5,0.1,1.1,0.1,1.6,0.1c0,0,0,0,0,0c0,0,0,0,0,0c0.5,0,1.1,0,1.6-0.1c0.1,0,0.3,0,0.4-0.1 c0.4,0,0.8-0.1,1.2-0.2c0.2,0,0.3-0.1,0.5-0.1c0.4-0.1,0.7-0.2,1.1-0.3c0.2,0,0.3-0.1,0.5-0.1c0.4-0.1,0.9-0.3,1.3-0.5 c0.1,0,0.2-0.1,0.2-0.1l51.7-22.8c0,0,0,0,0,0c0,0,0,0,0,0c1.4-0.6,1.8-0.4,1.9-0.4c0.8,0.3,1.5,1,1.8,1.7l20.3,52.9 c0,0.1,0.1,0.2,0.1,0.3c0.1,0.2,0.2,0.4,0.2,0.6c0.1,0.3,0.3,0.6,0.4,0.9c0.1,0.2,0.2,0.3,0.3,0.5c0.2,0.4,0.5,0.8,0.7,1.2 c0,0,0,0.1,0.1,0.1c0.3,0.4,0.6,0.8,0.9,1.2c0.1,0.1,0.2,0.2,0.3,0.3c0.3,0.3,0.5,0.6,0.8,0.8c0.1,0.1,0.2,0.2,0.3,0.3 c0.3,0.3,0.7,0.6,1.1,0.9c0,0,0.1,0,0.1,0.1c0.4,0.3,0.8,0.6,1.3,0.9c0,0,0.1,0.1,0.1,0.1c3,1.9,5.7,3.7,8.2,5.5 c0.1,0,0.1,0.1,0.2,0.1c0.2,0.1,0.3,0.2,0.5,0.3c0.3,0.2,0.5,0.3,0.8,0.5c0.2,0.1,0.3,0.2,0.5,0.3c0.3,0.1,0.6,0.3,0.9,0.4 c0.2,0.1,0.3,0.1,0.5,0.2c0.5,0.2,0.9,0.4,1.4,0.5c0,0,0.1,0,0.1,0c0.5,0.1,0.9,0.2,1.4,0.3c0.1,0,0.3,0.1,0.4,0.1 c0.4,0.1,0.8,0.1,1.2,0.2c0.1,0,0.3,0,0.4,0c0.5,0,1,0.1,1.5,0.1c0,0,0.1,0,0.1,0c0.1,0,0.3,0,0.4,0l56.6-1.7 c0.5,0,1.1,0.1,1.9,0.9c0.6,0.6,0.9,1.5,0.9,2.4c0,0,0,0,0,0c0,0,0,0,0,0l-1.2,56.3c0,0.1,0,0.2,0,0.3c0,0.3,0,0.7,0,1 c0,0.2,0,0.5,0,0.7c0,0.3,0.1,0.6,0.1,0.9c0,0.2,0.1,0.5,0.1,0.7c0.1,0.3,0.1,0.6,0.2,0.8c0.1,0.3,0.1,0.5,0.2,0.8 c0.1,0.3,0.2,0.5,0.3,0.8c0.1,0.3,0.2,0.6,0.3,0.8c0.1,0.2,0.2,0.4,0.3,0.7c0.1,0.3,0.3,0.6,0.4,0.9c0.1,0.2,0.2,0.4,0.3,0.6 c0.2,0.3,0.3,0.6,0.5,0.9c0,0.1,0.1,0.2,0.1,0.2c1.8,2.6,3.6,5.2,5.5,8.2c0.1,0.1,0.2,0.2,0.2,0.3c0.1,0.1,0.2,0.2,0.3,0.4 c0.3,0.4,0.6,0.8,0.9,1.1c0,0.1,0.1,0.1,0.1,0.2c0.3,0.3,0.6,0.6,0.9,0.9c0.1,0.1,0.2,0.2,0.3,0.3c0.3,0.3,0.7,0.6,1.1,0.9 c0.1,0,0.1,0.1,0.2,0.1c0.4,0.3,0.7,0.5,1.1,0.8c0.1,0,0.2,0.1,0.2,0.1c0.4,0.3,0.9,0.5,1.3,0.7c0.1,0,0.1,0.1,0.2,0.1 c0.5,0.2,1,0.5,1.5,0.7l52.5,20.3c0,0,0,0,0,0l0,0c1.4,0.5,1.6,1.1,1.7,1.4c0.4,0.9,0.3,2.1,0,2.8c0,0,0,0,0,0c0,0,0,0,0,0 L777.9,429c0,0.1-0.1,0.2-0.1,0.3c-0.1,0.3-0.2,0.6-0.4,0.9c-0.1,0.2-0.2,0.4-0.2,0.7c-0.1,0.3-0.2,0.6-0.2,0.9 c-0.1,0.2-0.1,0.5-0.2,0.7c-0.1,0.3-0.1,0.6-0.1,0.9c0,0.3-0.1,0.5-0.1,0.8c0,0.3,0,0.5-0.1,0.8c0,0.3,0,0.6,0,0.9 c0,0.2,0,0.5,0,0.7c0,0.3,0,0.6,0.1,0.9c0,0.2,0.1,0.5,0.1,0.7c0,0.3,0.1,0.7,0.2,1c0,0.1,0,0.2,0,0.3c0.7,3.4,1.4,6.7,2,9.8 c0,0.1,0,0.2,0.1,0.3c0.1,0.3,0.1,0.5,0.2,0.8c0.1,0.3,0.1,0.5,0.2,0.8c0.1,0.2,0.2,0.5,0.2,0.7c0.1,0.3,0.2,0.5,0.3,0.8 c0.1,0.2,0.2,0.4,0.3,0.6c0.1,0.3,0.3,0.6,0.4,0.8c0.1,0.2,0.2,0.4,0.3,0.6c0.2,0.3,0.4,0.6,0.5,0.9c0.1,0.1,0.2,0.3,0.3,0.4 c0.3,0.4,0.6,0.8,0.9,1.1c0,0,0.1,0.1,0.1,0.1c0.4,0.4,0.7,0.8,1.1,1.2c0,0,0,0,0.1,0.1l40.5,38.9c0,0,0,0,0,0c0,0,0,0,0,0 c0.8,0.8,0.9,1.4,0.9,2C825.3,500.2,824.9,501.2,824.3,501.7C824.4,501.7,824.4,501.7,824.3,501.7 C824.3,501.7,824.3,501.7,824.3,501.7z" fill="#000000" style="fill: rgb(56, 56, 56);"></path><path class="st0" d="M405.8,543.2l-1.7,0.1c-24.1,1.8-38.9,2.7-44.1,2.7l-12.4,0.1c-9.6,0-12-1.4-12.5-1.8 c-0.8-0.7-2.7-3.2-2.7-12.7v-16.7c0-2.9,0-5.1,0-6.6c0-0.7,0-1.4-0.1-2c0.3-1.6,1.1-2.2,2.9-2.4c3.2-0.3,11.1-0.4,23.3-0.4 c14.6,0,24,0.2,28.2,0.7c7.9,0.7,9.6,0.8,10.3,0.8c5.5,0,5.9-3.5,5.9-4.5c0-2.4,0.3-6,0.8-10.9c0.6-5.1,0.9-8.8,0.9-11.3 c0-1.8-0.7-2.9-1.4-3.5c-0.6-0.6-1.8-1.2-3.7-1.1c-6.2,0.6-11.6,1-16.1,1.1c-11.6,0.5-24.9,0.8-39.6,0.8h-3.8l-0.1,0 c-1.6,0.1-2.8,0.1-3.7,0.1c-3,0-3.3-1.1-3.5-1.7c-0.1-0.2-0.2-1.5-0.2-7.3V450c0-8.2,1.3-10.1,1.7-10.5c0.4-0.4,2.3-1.7,9.9-1.7 c6.4,0,16.2,0.4,29.1,1.1c12.9,0.7,22.7,1.1,29.2,1.1c3,0,5-2,5-5.1c0-2.6-0.8-8.7-2.4-18.8c-0.3-2-1.7-5.4-8.2-5.4 c-5,0-12.7,0.2-22.7,0.5c-9.9,0.3-17.5,0.5-22.5,0.5c-5.3,0-13.2-0.2-23.6-0.5c-10.5-0.3-18.5-0.5-23.7-0.5c-1.8,0-3.2,0.5-4.2,1.5 c-0.6,0.6-1.3,1.8-1.3,3.7l0.1,1.5c0.7,11.8,1.1,20.9,1.2,26.9c0.9,23.2,1.4,39.3,1.4,47.8c0,8.3-0.5,21-1.4,37.8 c-0.9,16.8-1.4,29.6-1.4,38.1c0,3.6,2.4,5.8,6.2,5.8c5.6,0,13.9-0.2,24.9-0.5c11-0.3,19.3-0.4,24.7-0.4c19.2,0,33.5,0.7,42.6,2 c2.3,0.3,3.8,0.5,4.6,0.5c2.7,0,4.7-1.4,5.3-3.9l0.1-0.3c0.8-5.2,1.3-9.1,1.6-11.8c0.2-0.7,0.6-2.4,1.2-4.9c0.7-2.5,1-4.4,1-5.8 c0-1.9-0.5-3.3-1.6-4.3C408.5,543.7,407.4,543.1,405.8,543.2z" fill="#000000" style="fill: rgb(56, 56, 56);"></path><path class="st0" d="M535.8,523.8c-1.1,0-1.6,0-8.1,6.2c-4.5,4.3-8.9,7.6-13.2,9.9c-6.4,3.5-13.2,5.2-20.1,5.2 c-14.1,0-24.7-5.4-32.6-16.4c-7-9.9-10.5-22.4-10.5-37.2c0-14.8,3.6-27.2,10.6-36.8c7.8-10.8,18.5-16,32.7-16 c7.3,0,14.1,1.7,20.2,5.2c3.7,2.1,7.7,5.4,12,9.7c5.1,5.2,7.1,6.3,8.7,6.3c1.6,0,2.9-0.5,9.3-10.6c5.9-9.3,6.4-11.4,6.4-12.7 c0-1.6-0.8-3.4-2.4-5.5c-12.9-15.9-31.4-24-54.8-24c-23.1,0-42,8.7-56.1,25.9c-13.2,15.9-19.8,35.8-19.8,59.3 c0,23.5,6.6,43.4,19.5,59.1c14,17,32.8,25.6,56,25.6c22.3,0,41.3-8.9,56.3-26.3c1.9-2.2,2.7-3.9,2.7-5.5c0-1,0-1.7-7.3-11.4 C537.7,523.8,537.2,523.8,535.8,523.8z" fill="#000000" style="fill: rgb(56, 56, 56);"></path><path class="st0" d="M634.5,406.8c-22.6,0-41.8,8.7-57.1,26c-14.8,16.6-22.3,36.5-22.3,59.3c0,23,7.4,43,22,59.4 c15.2,17.1,34.5,25.7,57.3,25.7c22.7,0,42-8.7,57.3-25.9c14.6-16.5,22-36.4,22-59.3c0-22.8-7.5-42.8-22.2-59.3 C676.4,415.6,657.2,406.8,634.5,406.8z M681.7,491.7c0,14.2-4.4,26.7-13.1,37.2c-9.2,11.2-20.4,16.7-34.4,16.7 c-13.7,0-24.8-5.5-33.9-16.7c-8.6-10.5-13-22.9-13-36.8c0-14.1,4.4-26.5,13-37c9.1-11.2,20.2-16.7,33.9-16.7 c13.8,0,25.1,5.4,34.3,16.5C677.3,465.3,681.7,477.7,681.7,491.7z" fill="#000000" style="fill: rgb(56, 56, 56);"></path></g></svg>