<svg width="34" height="34" viewBox="0 0 34 34" fill="none" xmlns="http://www.w3.org/2000/svg">
<g clip-path="url(#clip0_22_354)">
<path d="M0 17.0034C0 17.6506 0.524544 18.1751 1.17171 18.1751H23.4887L19.1356 22.5213C18.6792 22.9778 18.6792 23.7203 19.1356 24.1767C19.3604 24.4015 19.6602 24.5173 19.9599 24.5173C20.2597 24.5173 20.5594 24.4015 20.7842 24.1767L27.1264 17.8345C27.5828 17.3781 27.5828 16.6356 27.1264 16.1791L20.7842 9.83691C20.3278 9.38049 19.5853 9.38049 19.1288 9.83691C18.6724 10.2933 18.6724 11.0359 19.1288 11.4923L23.4751 15.8385H1.17171C0.524544 15.8385 0 16.3563 0 17.0034Z" fill="#336A35"/>
<path d="M27.0038 33.6662C30.8663 33.6662 34 30.5257 34 26.6632V7.33681C34 3.47425 30.8595 0.333801 27.0038 0.333801H7.67741C3.81485 0.333801 0.681213 3.47425 0.681213 7.33681V11.3084C0.681213 11.9555 1.20576 12.4733 1.84611 12.4733C2.49328 12.4733 3.01782 11.9487 3.01782 11.3084V7.33681C3.01782 4.76858 5.10918 2.67041 7.67741 2.67041H27.0038C29.572 2.67041 31.6634 4.76177 31.6634 7.33681V26.6632C31.6634 29.2314 29.572 31.3296 27.0038 31.3296H7.67741C5.10918 31.3296 3.01782 29.2382 3.01782 26.6632V22.7393C3.01782 22.0922 2.49328 21.5676 1.84611 21.5676C1.19895 21.5676 0.681213 22.0922 0.681213 22.7393V26.6632C0.681213 30.5257 3.82167 33.6662 7.67741 33.6662H27.0038Z" fill="#336A35"/>
</g>
<defs>
<clipPath id="clip0_22_354">
<rect width="34" height="34" fill="white"/>
</clipPath>
</defs>
</svg>
