<!-- icon666.com - MILLIONS vector ICONS FREE --><svg version="1.1" id="Capa_1" xmlns="http://www.w3.org/2000/svg" xmlns:xlink="http://www.w3.org/1999/xlink" x="0px" y="0px" viewBox="0 0 511.998 511.998" style="enable-background:new 0 0 511.998 511.998;" xml:space="preserve"><g><g><g><path d="M498.266,215.546c-0.259-0.419-0.538-0.827-0.86-1.208c-6.242-7.387-15.027-11.979-24.527-12.948 c-0.04-0.004-0.079-0.009-0.118-0.013c-0.482-0.048-0.967-0.082-1.452-0.111c-0.19-0.011-0.38-0.026-0.571-0.035 c-0.12-0.005-0.24-0.018-0.36-0.022l-110.982-26.658c0.363-3.657-0.241-7.42-1.883-10.941 c-3.479-7.462-10.755-12.098-18.988-12.098h-24.073V29.726C314.452,13.335,301.117,0,284.727,0h-57.453 c-16.391,0-29.726,13.335-29.726,29.726v121.787h-24.073c-8.233,0-15.509,4.635-18.989,12.097 c-1.645,3.528-2.248,7.298-1.881,10.961L41.804,201.208c-0.081,0.003-0.161,0.011-0.242,0.015 c-0.519,0.021-1.037,0.052-1.553,0.094c-0.086,0.007-0.173,0.012-0.26,0.02c-18.916,1.647-33.808,17.561-33.808,36.897v236.719 c0,8.944,3.186,17.157,8.482,23.566c0.147,0.197,0.291,0.395,0.452,0.583c3.755,4.364,8.417,7.725,13.581,9.926 c0.075,0.032,0.149,0.064,0.224,0.096c0.45,0.188,0.903,0.367,1.36,0.537c0.157,0.058,0.314,0.116,0.472,0.172 c0.402,0.144,0.806,0.281,1.213,0.411c0.219,0.07,0.44,0.136,0.661,0.202c0.366,0.109,0.732,0.216,1.101,0.313 c0.267,0.071,0.535,0.135,0.803,0.199c0.34,0.082,0.679,0.164,1.022,0.236c0.298,0.063,0.599,0.117,0.899,0.172 c0.325,0.06,0.648,0.123,0.975,0.175c0.321,0.051,0.645,0.09,0.968,0.132c0.314,0.041,0.626,0.087,0.941,0.12 c0.35,0.037,0.703,0.059,1.055,0.086c0.293,0.022,0.584,0.052,0.877,0.067c0.517,0.027,1.036,0.037,1.555,0.042 c0.126,0.001,0.251,0.01,0.377,0.01h0.027h425.998h0.026c0.668,0,1.332-0.02,1.991-0.055c0.023-0.001,0.047-0.004,0.07-0.005 c0.646-0.036,1.29-0.088,1.93-0.158c0.029-0.003,0.058-0.008,0.087-0.011c0.636-0.071,1.27-0.156,1.899-0.26 c0.022-0.004,0.043-0.008,0.065-0.012c0.636-0.105,1.268-0.227,1.895-0.365c0.018-0.004,0.036-0.008,0.054-0.012 c0.63-0.14,1.257-0.295,1.877-0.467c0.016-0.004,0.031-0.009,0.047-0.013c0.621-0.173,1.236-0.362,1.846-0.567 c0.018-0.006,0.035-0.012,0.053-0.018c0.608-0.205,1.21-0.426,1.806-0.662c0.017-0.007,0.035-0.014,0.052-0.021 c0.599-0.239,1.192-0.493,1.778-0.763c0.011-0.005,0.022-0.01,0.033-0.015c2.252-1.04,4.4-2.307,6.411-3.784 c0.665-0.489,1.313-0.999,1.943-1.53c0.006-0.005,0.011-0.01,0.017-0.015c0.494-0.417,0.977-0.848,1.45-1.292 c0.032-0.03,0.063-0.06,0.094-0.09c0.458-0.433,0.907-0.878,1.345-1.336c0.019-0.019,0.037-0.039,0.056-0.059 c0.434-0.455,0.854-0.924,1.265-1.4c0.022-0.026,0.046-0.049,0.068-0.075c0.026-0.03,0.047-0.064,0.073-0.094 c5.505-6.466,8.842-14.831,8.842-23.969V238.234C506.057,229.691,503.142,221.82,498.266,215.546z M172.613,172.063 c0.256-0.55,0.636-0.55,0.862-0.55h34.073c5.523,0,10-4.477,10-10v-2.554V29.726c0-5.363,4.363-9.726,9.726-9.726h57.453 c5.362,0,9.726,4.363,9.726,9.726v129.225v2.561c0,5.523,4.478,10,10,10h34.073c0.227,0,0.606,0,0.862,0.549 c0.256,0.55,0.012,0.841-0.134,1.015l-12.016,14.319l-11.573,13.791l-16.782,20l-39.724,47.34 C258.084,269.809,256.718,270,256,270c-0.718,0-2.083-0.191-3.159-1.473l-39.725-47.34l-16.783-20l-11.562-13.779l-12.026-14.332 C172.6,172.903,172.356,172.612,172.613,172.063z M43.08,221.187c0.787,0,1.572-0.093,2.337-0.277l82.041-19.723l35.588-8.556 l7.179,8.556l16.782,20l50.513,60.196C242.116,286.859,248.852,290,256,290c7.148,0,13.885-3.141,18.479-8.617l50.512-60.196 l16.783-20l7.193-8.572l35.687,8.572l82.114,19.724c0.766,0.184,1.549,0.276,2.336,0.276c1.159,0,2.304,0.118,3.418,0.346 l-0.021,0.016L315.389,343.673l-16.283,12.657l-24.989,19.424c-11.132,8.653-26.665,8.631-37.771-0.053l-23.548-18.409 L196.55,344.59L39.255,221.619C40.496,221.334,41.778,221.187,43.08,221.187z M471.968,491.726 c-0.434,0.077-0.87,0.147-1.312,0.191c-0.365,0.035-0.737,0.045-1.109,0.056c-0.188,0.006-0.374,0.027-0.563,0.027H42.988 c-0.57,0-1.133-0.031-1.689-0.086c-0.119-0.012-0.235-0.035-0.353-0.049c-0.359-0.043-0.714-0.098-1.066-0.163l38.707-30.087 c4.36-3.39,5.147-9.672,1.758-14.033c-3.39-4.361-9.672-5.147-14.033-1.758L26.09,477.089c-0.088-0.701-0.149-1.411-0.149-2.136 V238.234c0-0.531,0.032-1.055,0.08-1.574l154.245,120.586l-48.4,37.622c-4.36,3.39-5.147,9.672-1.758,14.033 c3.391,4.361,9.672,5.147,14.033,1.758l52.373-40.71l27.513,21.509c9.19,7.185,20.213,10.777,31.238,10.777 c10.977,0,21.957-3.563,31.126-10.691l28.962-22.512l156.889,122.652C472.152,491.701,472.059,491.71,471.968,491.726z M486.059,474.953c0,0.692-0.054,1.37-0.134,2.041L331.636,356.375l154.323-119.956c0.063,0.597,0.1,1.202,0.1,1.815V474.953z" fill="#000000" style="fill: rgb(255, 255, 255);"></path><path d="M114.18,424.63c-0.25-0.6-0.56-1.18-0.92-1.72c-0.36-0.55-0.78-1.06-1.24-1.52c-0.46-0.46-0.97-0.88-1.52-1.25 c-0.54-0.36-1.12-0.67-1.73-0.92c-0.6-0.25-1.23-0.44-1.87-0.57c-1.29-0.26-2.62-0.26-3.9,0c-0.64,0.13-1.27,0.32-1.88,0.57 c-0.6,0.25-1.18,0.56-1.72,0.92c-0.55,0.37-1.06,0.79-1.52,1.25c-0.46,0.46-0.88,0.97-1.25,1.52c-0.36,0.54-0.67,1.12-0.92,1.72 c-0.25,0.61-0.44,1.24-0.57,1.87c-0.13,0.65-0.19,1.31-0.19,1.96c0,0.65,0.06,1.31,0.19,1.95s0.32,1.27,0.57,1.87 c0.25,0.61,0.56,1.19,0.92,1.73c0.37,0.55,0.79,1.06,1.25,1.52c0.46,0.46,0.97,0.88,1.52,1.24c0.54,0.36,1.12,0.67,1.72,0.92 c0.61,0.25,1.24,0.44,1.88,0.57s1.3,0.2,1.95,0.2c0.65,0,1.31-0.07,1.95-0.2c0.64-0.13,1.27-0.32,1.87-0.57 c0.61-0.25,1.19-0.56,1.73-0.92c0.55-0.36,1.06-0.78,1.52-1.24c0.46-0.46,0.88-0.97,1.24-1.52c0.36-0.54,0.67-1.12,0.92-1.73 c0.25-0.6,0.44-1.23,0.57-1.87s0.2-1.3,0.2-1.95s-0.07-1.31-0.2-1.96C114.62,425.87,114.43,425.24,114.18,424.63z" fill="#000000" style="fill: rgb(255, 255, 255);"></path></g></g></g></svg>