<svg width="48" height="48" viewBox="0 0 48 48" fill="none" xmlns="http://www.w3.org/2000/svg">
<path d="M14 22.563V21.312C14 20.9142 13.842 20.5327 13.5607 20.2514C13.2794 19.97 12.8978 19.812 12.5 19.812C12.1022 19.812 11.7206 19.97 11.4393 20.2514C11.158 20.5327 11 20.9142 11 21.312V22.563C11 22.9608 11.158 23.3424 11.4393 23.6237C11.7206 23.905 12.1022 24.063 12.5 24.063C12.8978 24.063 13.2794 23.905 13.5607 23.6237C13.842 23.3424 14 22.9608 14 22.563Z" fill="white"/>
<path d="M32.75 3H15.5C14.3069 3.00131 13.1631 3.47584 12.3195 4.31947C11.4758 5.1631 11.0013 6.30693 11 7.5V15C11 15.3978 11.158 15.7794 11.4393 16.0607C11.7206 16.342 12.1022 16.5 12.5 16.5C12.8978 16.5 13.2794 16.342 13.5607 16.0607C13.842 15.7794 14 15.3978 14 15V7.5C14.0003 7.10226 14.1584 6.72089 14.4396 6.43965C14.7209 6.1584 15.1023 6.00028 15.5 6H17V9C16.9999 9.19702 17.0386 9.39212 17.1139 9.57417C17.1893 9.75621 17.2998 9.92161 17.4391 10.0609C17.5784 10.2002 17.7438 10.3107 17.9258 10.3861C18.1079 10.4614 18.303 10.5001 18.5 10.5H30.5C30.697 10.5001 30.8921 10.4614 31.0742 10.3861C31.2562 10.3107 31.4216 10.2002 31.5609 10.0609C31.7002 9.92161 31.8107 9.75621 31.8861 9.57417C31.9614 9.39212 32.0001 9.19702 32 9V6H32.75C33.1477 6.00028 33.5291 6.1584 33.8104 6.43965C34.0916 6.72089 34.2497 7.10226 34.25 7.5V40.5C34.2497 40.8977 34.0916 41.2791 33.8104 41.5604C33.5291 41.8416 33.1477 41.9997 32.75 42H15.5C15.1023 41.9997 14.7209 41.8416 14.4396 41.5604C14.1584 41.2791 14.0003 40.8977 14 40.5V27C14 26.6022 13.842 26.2206 13.5607 25.9393C13.2794 25.658 12.8978 25.5 12.5 25.5C12.1022 25.5 11.7206 25.658 11.4393 25.9393C11.158 26.2206 11 26.6022 11 27V40.5C11.0013 41.6931 11.4758 42.8369 12.3195 43.6805C13.1631 44.5242 14.3069 44.9987 15.5 45H32.75C33.9431 44.9987 35.0869 44.5242 35.9305 43.6805C36.7742 42.8369 37.2487 41.6931 37.25 40.5V7.5C37.2487 6.30693 36.7742 5.1631 35.9305 4.31947C35.0869 3.47584 33.9431 3.00131 32.75 3ZM29 7.5H20V6H29V7.5Z" fill="white"/>
</svg>
