<svg width="220" height="220" viewBox="0 0 220 220" fill="none" xmlns="http://www.w3.org/2000/svg">
<mask id="mask0_25_2831" style="mask-type:luminance" maskUnits="userSpaceOnUse" x="8" y="8" width="204" height="204">
<path d="M45.7849 8.30188H41.5094V12.5774H45.7849V8.30188Z" fill="white"/>
<path d="M49.9359 8.30188H45.6604V12.5774H49.9359V8.30188Z" fill="white"/>
<path d="M58.2378 8.30188H53.9623V12.5774H58.2378V8.30188Z" fill="white"/>
<path d="M78.9925 8.30188H74.717V12.5774H78.9925V8.30188Z" fill="white"/>
<path d="M83.1434 8.30188H78.8679V12.5774H83.1434V8.30188Z" fill="white"/>
<path d="M87.2943 8.30188H83.0189V12.5774H87.2943V8.30188Z" fill="white"/>
<path d="M91.4453 8.30188H87.1698V12.5774H91.4453V8.30188Z" fill="white"/>
<path d="M103.898 8.30188H99.6226V12.5774H103.898V8.30188Z" fill="white"/>
<path d="M108.049 8.30188H103.774V12.5774H108.049V8.30188Z" fill="white"/>
<path d="M132.955 8.30188H128.679V12.5774H132.955V8.30188Z" fill="white"/>
<path d="M137.106 8.30188H132.83V12.5774H137.106V8.30188Z" fill="white"/>
<path d="M141.257 8.30188H136.981V12.5774H141.257V8.30188Z" fill="white"/>
<path d="M157.86 8.30188H153.585V12.5774H157.86V8.30188Z" fill="white"/>
<path d="M162.011 8.30188H157.736V12.5774H162.011V8.30188Z" fill="white"/>
<path d="M178.615 8.30188H174.34V12.5774H178.615V8.30188Z" fill="white"/>
<path d="M45.7849 12.4528H41.5094V16.7283H45.7849V12.4528Z" fill="white"/>
<path d="M58.2378 12.4528H53.9623V16.7283H58.2378V12.4528Z" fill="white"/>
<path d="M66.5396 12.4528H62.2642V16.7283H66.5396V12.4528Z" fill="white"/>
<path d="M70.6906 12.4528H66.4151V16.7283H70.6906V12.4528Z" fill="white"/>
<path d="M78.9925 12.4528H74.717V16.7283H78.9925V12.4528Z" fill="white"/>
<path d="M91.4453 12.4528H87.1698V16.7283H91.4453V12.4528Z" fill="white"/>
<path d="M95.5962 12.4528H91.3207V16.7283H95.5962V12.4528Z" fill="white"/>
<path d="M99.7472 12.4528H95.4717V16.7283H99.7472V12.4528Z" fill="white"/>
<path d="M108.049 12.4528H103.774V16.7283H108.049V12.4528Z" fill="white"/>
<path d="M120.502 12.4528H116.226V16.7283H120.502V12.4528Z" fill="white"/>
<path d="M128.804 12.4528H124.528V16.7283H128.804V12.4528Z" fill="white"/>
<path d="M141.257 12.4528H136.981V16.7283H141.257V12.4528Z" fill="white"/>
<path d="M145.408 12.4528H141.132V16.7283H145.408V12.4528Z" fill="white"/>
<path d="M149.558 12.4528H145.283V16.7283H149.558V12.4528Z" fill="white"/>
<path d="M153.709 12.4528H149.434V16.7283H153.709V12.4528Z" fill="white"/>
<path d="M157.86 12.4528H153.585V16.7283H157.86V12.4528Z" fill="white"/>
<path d="M166.162 12.4528H161.887V16.7283H166.162V12.4528Z" fill="white"/>
<path d="M170.313 12.4528H166.038V16.7283H170.313V12.4528Z" fill="white"/>
<path d="M174.464 12.4528H170.189V16.7283H174.464V12.4528Z" fill="white"/>
<path d="M178.615 12.4528H174.34V16.7283H178.615V12.4528Z" fill="white"/>
<path d="M45.7849 16.6038H41.5094V20.8792H45.7849V16.6038Z" fill="white"/>
<path d="M58.2378 16.6038H53.9623V20.8792H58.2378V16.6038Z" fill="white"/>
<path d="M62.3887 16.6038H58.1132V20.8792H62.3887V16.6038Z" fill="white"/>
<path d="M66.5396 16.6038H62.2642V20.8792H66.5396V16.6038Z" fill="white"/>
<path d="M70.6906 16.6038H66.4151V20.8792H70.6906V16.6038Z" fill="white"/>
<path d="M74.8415 16.6038H70.566V20.8792H74.8415V16.6038Z" fill="white"/>
<path d="M91.4453 16.6038H87.1698V20.8792H91.4453V16.6038Z" fill="white"/>
<path d="M95.5962 16.6038H91.3207V20.8792H95.5962V16.6038Z" fill="white"/>
<path d="M108.049 16.6038H103.774V20.8792H108.049V16.6038Z" fill="white"/>
<path d="M112.2 16.6038H107.925V20.8792H112.2V16.6038Z" fill="white"/>
<path d="M124.653 16.6038H120.377V20.8792H124.653V16.6038Z" fill="white"/>
<path d="M132.955 16.6038H128.679V20.8792H132.955V16.6038Z" fill="white"/>
<path d="M141.257 16.6038H136.981V20.8792H141.257V16.6038Z" fill="white"/>
<path d="M153.709 16.6038H149.434V20.8792H153.709V16.6038Z" fill="white"/>
<path d="M174.464 16.6038H170.189V20.8792H174.464V16.6038Z" fill="white"/>
<path d="M178.615 16.6038H174.34V20.8792H178.615V16.6038Z" fill="white"/>
<path d="M49.9359 20.7547H45.6604V25.0302H49.9359V20.7547Z" fill="white"/>
<path d="M62.3887 20.7547H58.1132V25.0302H62.3887V20.7547Z" fill="white"/>
<path d="M66.5396 20.7547H62.2642V25.0302H66.5396V20.7547Z" fill="white"/>
<path d="M70.6906 20.7547H66.4151V25.0302H70.6906V20.7547Z" fill="white"/>
<path d="M78.9925 20.7547H74.717V25.0302H78.9925V20.7547Z" fill="white"/>
<path d="M83.1434 20.7547H78.8679V25.0302H83.1434V20.7547Z" fill="white"/>
<path d="M87.2943 20.7547H83.0189V25.0302H87.2943V20.7547Z" fill="white"/>
<path d="M91.4453 20.7547H87.1698V25.0302H91.4453V20.7547Z" fill="white"/>
<path d="M99.7472 20.7547H95.4717V25.0302H99.7472V20.7547Z" fill="white"/>
<path d="M103.898 20.7547H99.6226V25.0302H103.898V20.7547Z" fill="white"/>
<path d="M132.955 20.7547H128.679V25.0302H132.955V20.7547Z" fill="white"/>
<path d="M162.011 20.7547H157.736V25.0302H162.011V20.7547Z" fill="white"/>
<path d="M174.464 20.7547H170.189V25.0302H174.464V20.7547Z" fill="white"/>
<path d="M54.0868 24.9056H49.8113V29.1811H54.0868V24.9056Z" fill="white"/>
<path d="M66.5396 24.9056H62.2642V29.1811H66.5396V24.9056Z" fill="white"/>
<path d="M70.6906 24.9056H66.4151V29.1811H70.6906V24.9056Z" fill="white"/>
<path d="M91.4453 24.9056H87.1698V29.1811H91.4453V24.9056Z" fill="white"/>
<path d="M95.5962 24.9056H91.3207V29.1811H95.5962V24.9056Z" fill="white"/>
<path d="M103.898 24.9056H99.6226V29.1811H103.898V24.9056Z" fill="white"/>
<path d="M108.049 24.9056H103.774V29.1811H108.049V24.9056Z" fill="white"/>
<path d="M112.2 24.9056H107.925V29.1811H112.2V24.9056Z" fill="white"/>
<path d="M116.351 24.9056H112.075V29.1811H116.351V24.9056Z" fill="white"/>
<path d="M120.502 24.9056H116.226V29.1811H120.502V24.9056Z" fill="white"/>
<path d="M124.653 24.9056H120.377V29.1811H124.653V24.9056Z" fill="white"/>
<path d="M137.106 24.9056H132.83V29.1811H137.106V24.9056Z" fill="white"/>
<path d="M141.257 24.9056H136.981V29.1811H141.257V24.9056Z" fill="white"/>
<path d="M145.408 24.9056H141.132V29.1811H145.408V24.9056Z" fill="white"/>
<path d="M157.86 24.9056H153.585V29.1811H157.86V24.9056Z" fill="white"/>
<path d="M166.162 24.9056H161.887V29.1811H166.162V24.9056Z" fill="white"/>
<path d="M45.7849 29.0566H41.5094V33.3321H45.7849V29.0566Z" fill="white"/>
<path d="M49.9359 29.0566H45.6604V33.3321H49.9359V29.0566Z" fill="white"/>
<path d="M54.0868 29.0566H49.8113V33.3321H54.0868V29.0566Z" fill="white"/>
<path d="M62.3887 29.0566H58.1132V33.3321H62.3887V29.0566Z" fill="white"/>
<path d="M66.5396 29.0566H62.2642V33.3321H66.5396V29.0566Z" fill="white"/>
<path d="M70.6906 29.0566H66.4151V33.3321H70.6906V29.0566Z" fill="white"/>
<path d="M74.8415 29.0566H70.566V33.3321H74.8415V29.0566Z" fill="white"/>
<path d="M83.1434 29.0566H78.8679V33.3321H83.1434V29.0566Z" fill="white"/>
<path d="M87.2943 29.0566H83.0189V33.3321H87.2943V29.0566Z" fill="white"/>
<path d="M99.7472 29.0566H95.4717V33.3321H99.7472V29.0566Z" fill="white"/>
<path d="M103.898 29.0566H99.6226V33.3321H103.898V29.0566Z" fill="white"/>
<path d="M120.502 29.0566H116.226V33.3321H120.502V29.0566Z" fill="white"/>
<path d="M137.106 29.0566H132.83V33.3321H137.106V29.0566Z" fill="white"/>
<path d="M149.558 29.0566H145.283V33.3321H149.558V29.0566Z" fill="white"/>
<path d="M153.709 29.0566H149.434V33.3321H153.709V29.0566Z" fill="white"/>
<path d="M170.313 29.0566H166.038V33.3321H170.313V29.0566Z" fill="white"/>
<path d="M45.7849 33.2075H41.5094V37.483H45.7849V33.2075Z" fill="white"/>
<path d="M54.0868 33.2075H49.8113V37.483H54.0868V33.2075Z" fill="white"/>
<path d="M62.3887 33.2075H58.1132V37.483H62.3887V33.2075Z" fill="white"/>
<path d="M70.6906 33.2075H66.4151V37.483H70.6906V33.2075Z" fill="white"/>
<path d="M78.9925 33.2075H74.717V37.483H78.9925V33.2075Z" fill="white"/>
<path d="M87.2943 33.2075H83.0189V37.483H87.2943V33.2075Z" fill="white"/>
<path d="M95.5962 33.2075H91.3207V37.483H95.5962V33.2075Z" fill="white"/>
<path d="M103.898 33.2075H99.6226V37.483H103.898V33.2075Z" fill="white"/>
<path d="M112.2 33.2075H107.925V37.483H112.2V33.2075Z" fill="white"/>
<path d="M120.502 33.2075H116.226V37.483H120.502V33.2075Z" fill="white"/>
<path d="M128.804 33.2075H124.528V37.483H128.804V33.2075Z" fill="white"/>
<path d="M137.106 33.2075H132.83V37.483H137.106V33.2075Z" fill="white"/>
<path d="M145.408 33.2075H141.132V37.483H145.408V33.2075Z" fill="white"/>
<path d="M153.709 33.2075H149.434V37.483H153.709V33.2075Z" fill="white"/>
<path d="M162.011 33.2075H157.736V37.483H162.011V33.2075Z" fill="white"/>
<path d="M170.313 33.2075H166.038V37.483H170.313V33.2075Z" fill="white"/>
<path d="M178.615 33.2075H174.34V37.483H178.615V33.2075Z" fill="white"/>
<path d="M45.7849 37.3585H41.5094V41.6339H45.7849V37.3585Z" fill="white"/>
<path d="M54.0868 37.3585H49.8113V41.6339H54.0868V37.3585Z" fill="white"/>
<path d="M70.6906 37.3585H66.4151V41.6339H70.6906V37.3585Z" fill="white"/>
<path d="M74.8415 37.3585H70.566V41.6339H74.8415V37.3585Z" fill="white"/>
<path d="M78.9925 37.3585H74.717V41.6339H78.9925V37.3585Z" fill="white"/>
<path d="M87.2943 37.3585H83.0189V41.6339H87.2943V37.3585Z" fill="white"/>
<path d="M91.4453 37.3585H87.1698V41.6339H91.4453V37.3585Z" fill="white"/>
<path d="M99.7472 37.3585H95.4717V41.6339H99.7472V37.3585Z" fill="white"/>
<path d="M103.898 37.3585H99.6226V41.6339H103.898V37.3585Z" fill="white"/>
<path d="M120.502 37.3585H116.226V41.6339H120.502V37.3585Z" fill="white"/>
<path d="M132.955 37.3585H128.679V41.6339H132.955V37.3585Z" fill="white"/>
<path d="M137.106 37.3585H132.83V41.6339H137.106V37.3585Z" fill="white"/>
<path d="M141.257 37.3585H136.981V41.6339H141.257V37.3585Z" fill="white"/>
<path d="M153.709 37.3585H149.434V41.6339H153.709V37.3585Z" fill="white"/>
<path d="M166.162 37.3585H161.887V41.6339H166.162V37.3585Z" fill="white"/>
<path d="M174.464 37.3585H170.189V41.6339H174.464V37.3585Z" fill="white"/>
<path d="M178.615 37.3585H174.34V41.6339H178.615V37.3585Z" fill="white"/>
<path d="M20.8792 41.5094H16.6038V45.7849H20.8792V41.5094Z" fill="white"/>
<path d="M25.0302 41.5094H20.7547V45.7849H25.0302V41.5094Z" fill="white"/>
<path d="M29.1811 41.5094H24.9056V45.7849H29.1811V41.5094Z" fill="white"/>
<path d="M37.483 41.5094H33.2075V45.7849H37.483V41.5094Z" fill="white"/>
<path d="M45.7849 41.5094H41.5094V45.7849H45.7849V41.5094Z" fill="white"/>
<path d="M62.3887 41.5094H58.1132V45.7849H62.3887V41.5094Z" fill="white"/>
<path d="M66.5396 41.5094H62.2642V45.7849H66.5396V41.5094Z" fill="white"/>
<path d="M78.9925 41.5094H74.717V45.7849H78.9925V41.5094Z" fill="white"/>
<path d="M95.5962 41.5094H91.3207V45.7849H95.5962V41.5094Z" fill="white"/>
<path d="M99.7472 41.5094H95.4717V45.7849H99.7472V41.5094Z" fill="white"/>
<path d="M103.898 41.5094H99.6226V45.7849H103.898V41.5094Z" fill="white"/>
<path d="M108.049 41.5094H103.774V45.7849H108.049V41.5094Z" fill="white"/>
<path d="M112.2 41.5094H107.925V45.7849H112.2V41.5094Z" fill="white"/>
<path d="M116.351 41.5094H112.075V45.7849H116.351V41.5094Z" fill="white"/>
<path d="M120.502 41.5094H116.226V45.7849H120.502V41.5094Z" fill="white"/>
<path d="M128.804 41.5094H124.528V45.7849H128.804V41.5094Z" fill="white"/>
<path d="M132.955 41.5094H128.679V45.7849H132.955V41.5094Z" fill="white"/>
<path d="M141.257 41.5094H136.981V45.7849H141.257V41.5094Z" fill="white"/>
<path d="M149.558 41.5094H145.283V45.7849H149.558V41.5094Z" fill="white"/>
<path d="M153.709 41.5094H149.434V45.7849H153.709V41.5094Z" fill="white"/>
<path d="M157.86 41.5094H153.585V45.7849H157.86V41.5094Z" fill="white"/>
<path d="M162.011 41.5094H157.736V45.7849H162.011V41.5094Z" fill="white"/>
<path d="M174.464 41.5094H170.189V45.7849H174.464V41.5094Z" fill="white"/>
<path d="M178.615 41.5094H174.34V45.7849H178.615V41.5094Z" fill="white"/>
<path d="M182.766 41.5094H178.491V45.7849H182.766V41.5094Z" fill="white"/>
<path d="M186.917 41.5094H182.642V45.7849H186.917V41.5094Z" fill="white"/>
<path d="M191.068 41.5094H186.792V45.7849H191.068V41.5094Z" fill="white"/>
<path d="M203.521 41.5094H199.245V45.7849H203.521V41.5094Z" fill="white"/>
<path d="M207.672 41.5094H203.396V45.7849H207.672V41.5094Z" fill="white"/>
<path d="M211.823 41.5094H207.547V45.7849H211.823V41.5094Z" fill="white"/>
<path d="M12.5774 45.6604H8.30188V49.9359H12.5774V45.6604Z" fill="white"/>
<path d="M25.0302 45.6604H20.7547V49.9359H25.0302V45.6604Z" fill="white"/>
<path d="M33.3321 45.6604H29.0566V49.9359H33.3321V45.6604Z" fill="white"/>
<path d="M41.6339 45.6604H37.3585V49.9359H41.6339V45.6604Z" fill="white"/>
<path d="M45.7849 45.6604H41.5094V49.9359H45.7849V45.6604Z" fill="white"/>
<path d="M58.2378 45.6604H53.9623V49.9359H58.2378V45.6604Z" fill="white"/>
<path d="M74.8415 45.6604H70.566V49.9359H74.8415V45.6604Z" fill="white"/>
<path d="M78.9925 45.6604H74.717V49.9359H78.9925V45.6604Z" fill="white"/>
<path d="M83.1434 45.6604H78.8679V49.9359H83.1434V45.6604Z" fill="white"/>
<path d="M87.2943 45.6604H83.0189V49.9359H87.2943V45.6604Z" fill="white"/>
<path d="M95.5962 45.6604H91.3207V49.9359H95.5962V45.6604Z" fill="white"/>
<path d="M99.7472 45.6604H95.4717V49.9359H99.7472V45.6604Z" fill="white"/>
<path d="M108.049 45.6604H103.774V49.9359H108.049V45.6604Z" fill="white"/>
<path d="M116.351 45.6604H112.075V49.9359H116.351V45.6604Z" fill="white"/>
<path d="M120.502 45.6604H116.226V49.9359H120.502V45.6604Z" fill="white"/>
<path d="M124.653 45.6604H120.377V49.9359H124.653V45.6604Z" fill="white"/>
<path d="M128.804 45.6604H124.528V49.9359H128.804V45.6604Z" fill="white"/>
<path d="M132.955 45.6604H128.679V49.9359H132.955V45.6604Z" fill="white"/>
<path d="M157.86 45.6604H153.585V49.9359H157.86V45.6604Z" fill="white"/>
<path d="M162.011 45.6604H157.736V49.9359H162.011V45.6604Z" fill="white"/>
<path d="M166.162 45.6604H161.887V49.9359H166.162V45.6604Z" fill="white"/>
<path d="M186.917 45.6604H182.642V49.9359H186.917V45.6604Z" fill="white"/>
<path d="M191.068 45.6604H186.792V49.9359H191.068V45.6604Z" fill="white"/>
<path d="M203.521 45.6604H199.245V49.9359H203.521V45.6604Z" fill="white"/>
<path d="M29.1811 49.8113H24.9056V54.0868H29.1811V49.8113Z" fill="white"/>
<path d="M33.3321 49.8113H29.0566V54.0868H33.3321V49.8113Z" fill="white"/>
<path d="M37.483 49.8113H33.2075V54.0868H37.483V49.8113Z" fill="white"/>
<path d="M45.7849 49.8113H41.5094V54.0868H45.7849V49.8113Z" fill="white"/>
<path d="M62.3887 49.8113H58.1132V54.0868H62.3887V49.8113Z" fill="white"/>
<path d="M78.9925 49.8113H74.717V54.0868H78.9925V49.8113Z" fill="white"/>
<path d="M87.2943 49.8113H83.0189V54.0868H87.2943V49.8113Z" fill="white"/>
<path d="M95.5962 49.8113H91.3207V54.0868H95.5962V49.8113Z" fill="white"/>
<path d="M103.898 49.8113H99.6226V54.0868H103.898V49.8113Z" fill="white"/>
<path d="M108.049 49.8113H103.774V54.0868H108.049V49.8113Z" fill="white"/>
<path d="M116.351 49.8113H112.075V54.0868H116.351V49.8113Z" fill="white"/>
<path d="M141.257 49.8113H136.981V54.0868H141.257V49.8113Z" fill="white"/>
<path d="M145.408 49.8113H141.132V54.0868H145.408V49.8113Z" fill="white"/>
<path d="M149.558 49.8113H145.283V54.0868H149.558V49.8113Z" fill="white"/>
<path d="M153.709 49.8113H149.434V54.0868H153.709V49.8113Z" fill="white"/>
<path d="M157.86 49.8113H153.585V54.0868H157.86V49.8113Z" fill="white"/>
<path d="M162.011 49.8113H157.736V54.0868H162.011V49.8113Z" fill="white"/>
<path d="M170.313 49.8113H166.038V54.0868H170.313V49.8113Z" fill="white"/>
<path d="M178.615 49.8113H174.34V54.0868H178.615V49.8113Z" fill="white"/>
<path d="M195.219 49.8113H190.943V54.0868H195.219V49.8113Z" fill="white"/>
<path d="M203.521 49.8113H199.245V54.0868H203.521V49.8113Z" fill="white"/>
<path d="M211.823 49.8113H207.547V54.0868H211.823V49.8113Z" fill="white"/>
<path d="M16.7283 53.9623H12.4528V58.2378H16.7283V53.9623Z" fill="white"/>
<path d="M25.0302 53.9623H20.7547V58.2378H25.0302V53.9623Z" fill="white"/>
<path d="M29.1811 53.9623H24.9056V58.2378H29.1811V53.9623Z" fill="white"/>
<path d="M41.6339 53.9623H37.3585V58.2378H41.6339V53.9623Z" fill="white"/>
<path d="M45.7849 53.9623H41.5094V58.2378H45.7849V53.9623Z" fill="white"/>
<path d="M49.9359 53.9623H45.6604V58.2378H49.9359V53.9623Z" fill="white"/>
<path d="M54.0868 53.9623H49.8113V58.2378H54.0868V53.9623Z" fill="white"/>
<path d="M74.8415 53.9623H70.566V58.2378H74.8415V53.9623Z" fill="white"/>
<path d="M78.9925 53.9623H74.717V58.2378H78.9925V53.9623Z" fill="white"/>
<path d="M83.1434 53.9623H78.8679V58.2378H83.1434V53.9623Z" fill="white"/>
<path d="M91.4453 53.9623H87.1698V58.2378H91.4453V53.9623Z" fill="white"/>
<path d="M95.5962 53.9623H91.3207V58.2378H95.5962V53.9623Z" fill="white"/>
<path d="M99.7472 53.9623H95.4717V58.2378H99.7472V53.9623Z" fill="white"/>
<path d="M103.898 53.9623H99.6226V58.2378H103.898V53.9623Z" fill="white"/>
<path d="M108.049 53.9623H103.774V58.2378H108.049V53.9623Z" fill="white"/>
<path d="M112.2 53.9623H107.925V58.2378H112.2V53.9623Z" fill="white"/>
<path d="M116.351 53.9623H112.075V58.2378H116.351V53.9623Z" fill="white"/>
<path d="M137.106 53.9623H132.83V58.2378H137.106V53.9623Z" fill="white"/>
<path d="M141.257 53.9623H136.981V58.2378H141.257V53.9623Z" fill="white"/>
<path d="M145.408 53.9623H141.132V58.2378H145.408V53.9623Z" fill="white"/>
<path d="M157.86 53.9623H153.585V58.2378H157.86V53.9623Z" fill="white"/>
<path d="M182.766 53.9623H178.491V58.2378H182.766V53.9623Z" fill="white"/>
<path d="M195.219 53.9623H190.943V58.2378H195.219V53.9623Z" fill="white"/>
<path d="M207.672 53.9623H203.396V58.2378H207.672V53.9623Z" fill="white"/>
<path d="M12.5774 58.1132H8.30188V62.3887H12.5774V58.1132Z" fill="white"/>
<path d="M25.0302 58.1132H20.7547V62.3887H25.0302V58.1132Z" fill="white"/>
<path d="M33.3321 58.1132H29.0566V62.3887H33.3321V58.1132Z" fill="white"/>
<path d="M37.483 58.1132H33.2075V62.3887H37.483V58.1132Z" fill="white"/>
<path d="M45.7849 58.1132H41.5094V62.3887H45.7849V58.1132Z" fill="white"/>
<path d="M58.2378 58.1132H53.9623V62.3887H58.2378V58.1132Z" fill="white"/>
<path d="M62.3887 58.1132H58.1132V62.3887H62.3887V58.1132Z" fill="white"/>
<path d="M66.5396 58.1132H62.2642V62.3887H66.5396V58.1132Z" fill="white"/>
<path d="M74.8415 58.1132H70.566V62.3887H74.8415V58.1132Z" fill="white"/>
<path d="M78.9925 58.1132H74.717V62.3887H78.9925V58.1132Z" fill="white"/>
<path d="M83.1434 58.1132H78.8679V62.3887H83.1434V58.1132Z" fill="white"/>
<path d="M91.4453 58.1132H87.1698V62.3887H91.4453V58.1132Z" fill="white"/>
<path d="M99.7472 58.1132H95.4717V62.3887H99.7472V58.1132Z" fill="white"/>
<path d="M128.804 58.1132H124.528V62.3887H128.804V58.1132Z" fill="white"/>
<path d="M132.955 58.1132H128.679V62.3887H132.955V58.1132Z" fill="white"/>
<path d="M141.257 58.1132H136.981V62.3887H141.257V58.1132Z" fill="white"/>
<path d="M157.86 58.1132H153.585V62.3887H157.86V58.1132Z" fill="white"/>
<path d="M162.011 58.1132H157.736V62.3887H162.011V58.1132Z" fill="white"/>
<path d="M166.162 58.1132H161.887V62.3887H166.162V58.1132Z" fill="white"/>
<path d="M174.464 58.1132H170.189V62.3887H174.464V58.1132Z" fill="white"/>
<path d="M178.615 58.1132H174.34V62.3887H178.615V58.1132Z" fill="white"/>
<path d="M182.766 58.1132H178.491V62.3887H182.766V58.1132Z" fill="white"/>
<path d="M199.37 58.1132H195.094V62.3887H199.37V58.1132Z" fill="white"/>
<path d="M203.521 58.1132H199.245V62.3887H203.521V58.1132Z" fill="white"/>
<path d="M207.672 58.1132H203.396V62.3887H207.672V58.1132Z" fill="white"/>
<path d="M12.5774 62.2642H8.30188V66.5396H12.5774V62.2642Z" fill="white"/>
<path d="M25.0302 62.2642H20.7547V66.5396H25.0302V62.2642Z" fill="white"/>
<path d="M41.6339 62.2642H37.3585V66.5396H41.6339V62.2642Z" fill="white"/>
<path d="M49.9359 62.2642H45.6604V66.5396H49.9359V62.2642Z" fill="white"/>
<path d="M54.0868 62.2642H49.8113V66.5396H54.0868V62.2642Z" fill="white"/>
<path d="M58.2378 62.2642H53.9623V66.5396H58.2378V62.2642Z" fill="white"/>
<path d="M62.3887 62.2642H58.1132V66.5396H62.3887V62.2642Z" fill="white"/>
<path d="M78.9925 62.2642H74.717V66.5396H78.9925V62.2642Z" fill="white"/>
<path d="M87.2943 62.2642H83.0189V66.5396H87.2943V62.2642Z" fill="white"/>
<path d="M95.5962 62.2642H91.3207V66.5396H95.5962V62.2642Z" fill="white"/>
<path d="M108.049 62.2642H103.774V66.5396H108.049V62.2642Z" fill="white"/>
<path d="M112.2 62.2642H107.925V66.5396H112.2V62.2642Z" fill="white"/>
<path d="M116.351 62.2642H112.075V66.5396H116.351V62.2642Z" fill="white"/>
<path d="M124.653 62.2642H120.377V66.5396H124.653V62.2642Z" fill="white"/>
<path d="M132.955 62.2642H128.679V66.5396H132.955V62.2642Z" fill="white"/>
<path d="M166.162 62.2642H161.887V66.5396H166.162V62.2642Z" fill="white"/>
<path d="M174.464 62.2642H170.189V66.5396H174.464V62.2642Z" fill="white"/>
<path d="M186.917 62.2642H182.642V66.5396H186.917V62.2642Z" fill="white"/>
<path d="M191.068 62.2642H186.792V66.5396H191.068V62.2642Z" fill="white"/>
<path d="M203.521 62.2642H199.245V66.5396H203.521V62.2642Z" fill="white"/>
<path d="M16.7283 66.4151H12.4528V70.6906H16.7283V66.4151Z" fill="white"/>
<path d="M29.1811 66.4151H24.9056V70.6906H29.1811V66.4151Z" fill="white"/>
<path d="M33.3321 66.4151H29.0566V70.6906H33.3321V66.4151Z" fill="white"/>
<path d="M37.483 66.4151H33.2075V70.6906H37.483V66.4151Z" fill="white"/>
<path d="M49.9359 66.4151H45.6604V70.6906H49.9359V66.4151Z" fill="white"/>
<path d="M54.0868 66.4151H49.8113V70.6906H54.0868V66.4151Z" fill="white"/>
<path d="M70.6906 66.4151H66.4151V70.6906H70.6906V66.4151Z" fill="white"/>
<path d="M74.8415 66.4151H70.566V70.6906H74.8415V66.4151Z" fill="white"/>
<path d="M78.9925 66.4151H74.717V70.6906H78.9925V66.4151Z" fill="white"/>
<path d="M95.5962 66.4151H91.3207V70.6906H95.5962V66.4151Z" fill="white"/>
<path d="M99.7472 66.4151H95.4717V70.6906H99.7472V66.4151Z" fill="white"/>
<path d="M103.898 66.4151H99.6226V70.6906H103.898V66.4151Z" fill="white"/>
<path d="M108.049 66.4151H103.774V70.6906H108.049V66.4151Z" fill="white"/>
<path d="M112.2 66.4151H107.925V70.6906H112.2V66.4151Z" fill="white"/>
<path d="M120.502 66.4151H116.226V70.6906H120.502V66.4151Z" fill="white"/>
<path d="M124.653 66.4151H120.377V70.6906H124.653V66.4151Z" fill="white"/>
<path d="M128.804 66.4151H124.528V70.6906H128.804V66.4151Z" fill="white"/>
<path d="M132.955 66.4151H128.679V70.6906H132.955V66.4151Z" fill="white"/>
<path d="M137.106 66.4151H132.83V70.6906H137.106V66.4151Z" fill="white"/>
<path d="M141.257 66.4151H136.981V70.6906H141.257V66.4151Z" fill="white"/>
<path d="M145.408 66.4151H141.132V70.6906H145.408V66.4151Z" fill="white"/>
<path d="M153.709 66.4151H149.434V70.6906H153.709V66.4151Z" fill="white"/>
<path d="M157.86 66.4151H153.585V70.6906H157.86V66.4151Z" fill="white"/>
<path d="M170.313 66.4151H166.038V70.6906H170.313V66.4151Z" fill="white"/>
<path d="M174.464 66.4151H170.189V70.6906H174.464V66.4151Z" fill="white"/>
<path d="M178.615 66.4151H174.34V70.6906H178.615V66.4151Z" fill="white"/>
<path d="M191.068 66.4151H186.792V70.6906H191.068V66.4151Z" fill="white"/>
<path d="M207.672 66.4151H203.396V70.6906H207.672V66.4151Z" fill="white"/>
<path d="M211.823 66.4151H207.547V70.6906H211.823V66.4151Z" fill="white"/>
<path d="M12.5774 70.566H8.30188V74.8415H12.5774V70.566Z" fill="white"/>
<path d="M16.7283 70.566H12.4528V74.8415H16.7283V70.566Z" fill="white"/>
<path d="M20.8792 70.566H16.6038V74.8415H20.8792V70.566Z" fill="white"/>
<path d="M25.0302 70.566H20.7547V74.8415H25.0302V70.566Z" fill="white"/>
<path d="M29.1811 70.566H24.9056V74.8415H29.1811V70.566Z" fill="white"/>
<path d="M45.7849 70.566H41.5094V74.8415H45.7849V70.566Z" fill="white"/>
<path d="M58.2378 70.566H53.9623V74.8415H58.2378V70.566Z" fill="white"/>
<path d="M66.5396 70.566H62.2642V74.8415H66.5396V70.566Z" fill="white"/>
<path d="M78.9925 70.566H74.717V74.8415H78.9925V70.566Z" fill="white"/>
<path d="M87.2943 70.566H83.0189V74.8415H87.2943V70.566Z" fill="white"/>
<path d="M91.4453 70.566H87.1698V74.8415H91.4453V70.566Z" fill="white"/>
<path d="M95.5962 70.566H91.3207V74.8415H95.5962V70.566Z" fill="white"/>
<path d="M103.898 70.566H99.6226V74.8415H103.898V70.566Z" fill="white"/>
<path d="M108.049 70.566H103.774V74.8415H108.049V70.566Z" fill="white"/>
<path d="M112.2 70.566H107.925V74.8415H112.2V70.566Z" fill="white"/>
<path d="M116.351 70.566H112.075V74.8415H116.351V70.566Z" fill="white"/>
<path d="M120.502 70.566H116.226V74.8415H120.502V70.566Z" fill="white"/>
<path d="M141.257 70.566H136.981V74.8415H141.257V70.566Z" fill="white"/>
<path d="M149.558 70.566H145.283V74.8415H149.558V70.566Z" fill="white"/>
<path d="M153.709 70.566H149.434V74.8415H153.709V70.566Z" fill="white"/>
<path d="M174.464 70.566H170.189V74.8415H174.464V70.566Z" fill="white"/>
<path d="M178.615 70.566H174.34V74.8415H178.615V70.566Z" fill="white"/>
<path d="M182.766 70.566H178.491V74.8415H182.766V70.566Z" fill="white"/>
<path d="M195.219 70.566H190.943V74.8415H195.219V70.566Z" fill="white"/>
<path d="M33.3321 74.717H29.0566V78.9925H33.3321V74.717Z" fill="white"/>
<path d="M37.483 74.717H33.2075V78.9925H37.483V74.717Z" fill="white"/>
<path d="M41.6339 74.717H37.3585V78.9925H41.6339V74.717Z" fill="white"/>
<path d="M58.2378 74.717H53.9623V78.9925H58.2378V74.717Z" fill="white"/>
<path d="M62.3887 74.717H58.1132V78.9925H62.3887V74.717Z" fill="white"/>
<path d="M70.6906 74.717H66.4151V78.9925H70.6906V74.717Z" fill="white"/>
<path d="M74.8415 74.717H70.566V78.9925H74.8415V74.717Z" fill="white"/>
<path d="M83.1434 74.717H78.8679V78.9925H83.1434V74.717Z" fill="white"/>
<path d="M87.2943 74.717H83.0189V78.9925H87.2943V74.717Z" fill="white"/>
<path d="M95.5962 74.717H91.3207V78.9925H95.5962V74.717Z" fill="white"/>
<path d="M103.898 74.717H99.6226V78.9925H103.898V74.717Z" fill="white"/>
<path d="M108.049 74.717H103.774V78.9925H108.049V74.717Z" fill="white"/>
<path d="M124.653 74.717H120.377V78.9925H124.653V74.717Z" fill="white"/>
<path d="M128.804 74.717H124.528V78.9925H128.804V74.717Z" fill="white"/>
<path d="M132.955 74.717H128.679V78.9925H132.955V74.717Z" fill="white"/>
<path d="M145.408 74.717H141.132V78.9925H145.408V74.717Z" fill="white"/>
<path d="M153.709 74.717H149.434V78.9925H153.709V74.717Z" fill="white"/>
<path d="M157.86 74.717H153.585V78.9925H157.86V74.717Z" fill="white"/>
<path d="M162.011 74.717H157.736V78.9925H162.011V74.717Z" fill="white"/>
<path d="M170.313 74.717H166.038V78.9925H170.313V74.717Z" fill="white"/>
<path d="M178.615 74.717H174.34V78.9925H178.615V74.717Z" fill="white"/>
<path d="M182.766 74.717H178.491V78.9925H182.766V74.717Z" fill="white"/>
<path d="M191.068 74.717H186.792V78.9925H191.068V74.717Z" fill="white"/>
<path d="M199.37 74.717H195.094V78.9925H199.37V74.717Z" fill="white"/>
<path d="M203.521 74.717H199.245V78.9925H203.521V74.717Z" fill="white"/>
<path d="M16.7283 78.8679H12.4528V83.1434H16.7283V78.8679Z" fill="white"/>
<path d="M25.0302 78.8679H20.7547V83.1434H25.0302V78.8679Z" fill="white"/>
<path d="M49.9359 78.8679H45.6604V83.1434H49.9359V78.8679Z" fill="white"/>
<path d="M83.1434 78.8679H78.8679V83.1434H83.1434V78.8679Z" fill="white"/>
<path d="M87.2943 78.8679H83.0189V83.1434H87.2943V78.8679Z" fill="white"/>
<path d="M91.4453 78.8679H87.1698V83.1434H91.4453V78.8679Z" fill="white"/>
<path d="M95.5962 78.8679H91.3207V83.1434H95.5962V78.8679Z" fill="white"/>
<path d="M103.898 78.8679H99.6226V83.1434H103.898V78.8679Z" fill="white"/>
<path d="M141.257 78.8679H136.981V83.1434H141.257V78.8679Z" fill="white"/>
<path d="M157.86 78.8679H153.585V83.1434H157.86V78.8679Z" fill="white"/>
<path d="M162.011 78.8679H157.736V83.1434H162.011V78.8679Z" fill="white"/>
<path d="M166.162 78.8679H161.887V83.1434H166.162V78.8679Z" fill="white"/>
<path d="M186.917 78.8679H182.642V83.1434H186.917V78.8679Z" fill="white"/>
<path d="M199.37 78.8679H195.094V83.1434H199.37V78.8679Z" fill="white"/>
<path d="M203.521 78.8679H199.245V83.1434H203.521V78.8679Z" fill="white"/>
<path d="M12.5774 83.0189H8.30188V87.2943H12.5774V83.0189Z" fill="white"/>
<path d="M29.1811 83.0189H24.9056V87.2943H29.1811V83.0189Z" fill="white"/>
<path d="M37.483 83.0189H33.2075V87.2943H37.483V83.0189Z" fill="white"/>
<path d="M45.7849 83.0189H41.5094V87.2943H45.7849V83.0189Z" fill="white"/>
<path d="M49.9359 83.0189H45.6604V87.2943H49.9359V83.0189Z" fill="white"/>
<path d="M54.0868 83.0189H49.8113V87.2943H54.0868V83.0189Z" fill="white"/>
<path d="M62.3887 83.0189H58.1132V87.2943H62.3887V83.0189Z" fill="white"/>
<path d="M66.5396 83.0189H62.2642V87.2943H66.5396V83.0189Z" fill="white"/>
<path d="M70.6906 83.0189H66.4151V87.2943H70.6906V83.0189Z" fill="white"/>
<path d="M78.9925 83.0189H74.717V87.2943H78.9925V83.0189Z" fill="white"/>
<path d="M87.2943 83.0189H83.0189V87.2943H87.2943V83.0189Z" fill="white"/>
<path d="M95.5962 83.0189H91.3207V87.2943H95.5962V83.0189Z" fill="white"/>
<path d="M99.7472 83.0189H95.4717V87.2943H99.7472V83.0189Z" fill="white"/>
<path d="M103.898 83.0189H99.6226V87.2943H103.898V83.0189Z" fill="white"/>
<path d="M108.049 83.0189H103.774V87.2943H108.049V83.0189Z" fill="white"/>
<path d="M120.502 83.0189H116.226V87.2943H120.502V83.0189Z" fill="white"/>
<path d="M124.653 83.0189H120.377V87.2943H124.653V83.0189Z" fill="white"/>
<path d="M128.804 83.0189H124.528V87.2943H128.804V83.0189Z" fill="white"/>
<path d="M132.955 83.0189H128.679V87.2943H132.955V83.0189Z" fill="white"/>
<path d="M141.257 83.0189H136.981V87.2943H141.257V83.0189Z" fill="white"/>
<path d="M145.408 83.0189H141.132V87.2943H145.408V83.0189Z" fill="white"/>
<path d="M153.709 83.0189H149.434V87.2943H153.709V83.0189Z" fill="white"/>
<path d="M157.86 83.0189H153.585V87.2943H157.86V83.0189Z" fill="white"/>
<path d="M170.313 83.0189H166.038V87.2943H170.313V83.0189Z" fill="white"/>
<path d="M174.464 83.0189H170.189V87.2943H174.464V83.0189Z" fill="white"/>
<path d="M191.068 83.0189H186.792V87.2943H191.068V83.0189Z" fill="white"/>
<path d="M199.37 83.0189H195.094V87.2943H199.37V83.0189Z" fill="white"/>
<path d="M211.823 83.0189H207.547V87.2943H211.823V83.0189Z" fill="white"/>
<path d="M12.5774 87.1698H8.30188V91.4453H12.5774V87.1698Z" fill="white"/>
<path d="M16.7283 87.1698H12.4528V91.4453H16.7283V87.1698Z" fill="white"/>
<path d="M20.8792 87.1698H16.6038V91.4453H20.8792V87.1698Z" fill="white"/>
<path d="M25.0302 87.1698H20.7547V91.4453H25.0302V87.1698Z" fill="white"/>
<path d="M33.3321 87.1698H29.0566V91.4453H33.3321V87.1698Z" fill="white"/>
<path d="M45.7849 87.1698H41.5094V91.4453H45.7849V87.1698Z" fill="white"/>
<path d="M54.0868 87.1698H49.8113V91.4453H54.0868V87.1698Z" fill="white"/>
<path d="M62.3887 87.1698H58.1132V91.4453H62.3887V87.1698Z" fill="white"/>
<path d="M66.5396 87.1698H62.2642V91.4453H66.5396V87.1698Z" fill="white"/>
<path d="M83.1434 87.1698H78.8679V91.4453H83.1434V87.1698Z" fill="white"/>
<path d="M87.2943 87.1698H83.0189V91.4453H87.2943V87.1698Z" fill="white"/>
<path d="M95.5962 87.1698H91.3207V91.4453H95.5962V87.1698Z" fill="white"/>
<path d="M120.502 87.1698H116.226V91.4453H120.502V87.1698Z" fill="white"/>
<path d="M132.955 87.1698H128.679V91.4453H132.955V87.1698Z" fill="white"/>
<path d="M137.106 87.1698H132.83V91.4453H137.106V87.1698Z" fill="white"/>
<path d="M141.257 87.1698H136.981V91.4453H141.257V87.1698Z" fill="white"/>
<path d="M145.408 87.1698H141.132V91.4453H145.408V87.1698Z" fill="white"/>
<path d="M153.709 87.1698H149.434V91.4453H153.709V87.1698Z" fill="white"/>
<path d="M166.162 87.1698H161.887V91.4453H166.162V87.1698Z" fill="white"/>
<path d="M170.313 87.1698H166.038V91.4453H170.313V87.1698Z" fill="white"/>
<path d="M174.464 87.1698H170.189V91.4453H174.464V87.1698Z" fill="white"/>
<path d="M186.917 87.1698H182.642V91.4453H186.917V87.1698Z" fill="white"/>
<path d="M191.068 87.1698H186.792V91.4453H191.068V87.1698Z" fill="white"/>
<path d="M195.219 87.1698H190.943V91.4453H195.219V87.1698Z" fill="white"/>
<path d="M207.672 87.1698H203.396V91.4453H207.672V87.1698Z" fill="white"/>
<path d="M211.823 87.1698H207.547V91.4453H211.823V87.1698Z" fill="white"/>
<path d="M33.3321 91.3207H29.0566V95.5962H33.3321V91.3207Z" fill="white"/>
<path d="M37.483 91.3207H33.2075V95.5962H37.483V91.3207Z" fill="white"/>
<path d="M41.6339 91.3207H37.3585V95.5962H41.6339V91.3207Z" fill="white"/>
<path d="M45.7849 91.3207H41.5094V95.5962H45.7849V91.3207Z" fill="white"/>
<path d="M49.9359 91.3207H45.6604V95.5962H49.9359V91.3207Z" fill="white"/>
<path d="M54.0868 91.3207H49.8113V95.5962H54.0868V91.3207Z" fill="white"/>
<path d="M74.8415 91.3207H70.566V95.5962H74.8415V91.3207Z" fill="white"/>
<path d="M87.2943 91.3207H83.0189V95.5962H87.2943V91.3207Z" fill="white"/>
<path d="M91.4453 91.3207H87.1698V95.5962H91.4453V91.3207Z" fill="white"/>
<path d="M99.7472 91.3207H95.4717V95.5962H99.7472V91.3207Z" fill="white"/>
<path d="M103.898 91.3207H99.6226V95.5962H103.898V91.3207Z" fill="white"/>
<path d="M112.2 91.3207H107.925V95.5962H112.2V91.3207Z" fill="white"/>
<path d="M120.502 91.3207H116.226V95.5962H120.502V91.3207Z" fill="white"/>
<path d="M132.955 91.3207H128.679V95.5962H132.955V91.3207Z" fill="white"/>
<path d="M137.106 91.3207H132.83V95.5962H137.106V91.3207Z" fill="white"/>
<path d="M141.257 91.3207H136.981V95.5962H141.257V91.3207Z" fill="white"/>
<path d="M145.408 91.3207H141.132V95.5962H145.408V91.3207Z" fill="white"/>
<path d="M149.558 91.3207H145.283V95.5962H149.558V91.3207Z" fill="white"/>
<path d="M153.709 91.3207H149.434V95.5962H153.709V91.3207Z" fill="white"/>
<path d="M162.011 91.3207H157.736V95.5962H162.011V91.3207Z" fill="white"/>
<path d="M166.162 91.3207H161.887V95.5962H166.162V91.3207Z" fill="white"/>
<path d="M170.313 91.3207H166.038V95.5962H170.313V91.3207Z" fill="white"/>
<path d="M174.464 91.3207H170.189V95.5962H174.464V91.3207Z" fill="white"/>
<path d="M178.615 91.3207H174.34V95.5962H178.615V91.3207Z" fill="white"/>
<path d="M186.917 91.3207H182.642V95.5962H186.917V91.3207Z" fill="white"/>
<path d="M191.068 91.3207H186.792V95.5962H191.068V91.3207Z" fill="white"/>
<path d="M203.521 91.3207H199.245V95.5962H203.521V91.3207Z" fill="white"/>
<path d="M207.672 91.3207H203.396V95.5962H207.672V91.3207Z" fill="white"/>
<path d="M16.7283 95.4717H12.4528V99.7472H16.7283V95.4717Z" fill="white"/>
<path d="M20.8792 95.4717H16.6038V99.7472H20.8792V95.4717Z" fill="white"/>
<path d="M33.3321 95.4717H29.0566V99.7472H33.3321V95.4717Z" fill="white"/>
<path d="M45.7849 95.4717H41.5094V99.7472H45.7849V95.4717Z" fill="white"/>
<path d="M54.0868 95.4717H49.8113V99.7472H54.0868V95.4717Z" fill="white"/>
<path d="M70.6906 95.4717H66.4151V99.7472H70.6906V95.4717Z" fill="white"/>
<path d="M74.8415 95.4717H70.566V99.7472H74.8415V95.4717Z" fill="white"/>
<path d="M78.9925 95.4717H74.717V99.7472H78.9925V95.4717Z" fill="white"/>
<path d="M83.1434 95.4717H78.8679V99.7472H83.1434V95.4717Z" fill="white"/>
<path d="M87.2943 95.4717H83.0189V99.7472H87.2943V95.4717Z" fill="white"/>
<path d="M103.898 95.4717H99.6226V99.7472H103.898V95.4717Z" fill="white"/>
<path d="M108.049 95.4717H103.774V99.7472H108.049V95.4717Z" fill="white"/>
<path d="M112.2 95.4717H107.925V99.7472H112.2V95.4717Z" fill="white"/>
<path d="M116.351 95.4717H112.075V99.7472H116.351V95.4717Z" fill="white"/>
<path d="M132.955 95.4717H128.679V99.7472H132.955V95.4717Z" fill="white"/>
<path d="M141.257 95.4717H136.981V99.7472H141.257V95.4717Z" fill="white"/>
<path d="M157.86 95.4717H153.585V99.7472H157.86V95.4717Z" fill="white"/>
<path d="M182.766 95.4717H178.491V99.7472H182.766V95.4717Z" fill="white"/>
<path d="M186.917 95.4717H182.642V99.7472H186.917V95.4717Z" fill="white"/>
<path d="M203.521 95.4717H199.245V99.7472H203.521V95.4717Z" fill="white"/>
<path d="M12.5774 99.6226H8.30188V103.898H12.5774V99.6226Z" fill="white"/>
<path d="M16.7283 99.6226H12.4528V103.898H16.7283V99.6226Z" fill="white"/>
<path d="M25.0302 99.6226H20.7547V103.898H25.0302V99.6226Z" fill="white"/>
<path d="M29.1811 99.6226H24.9056V103.898H29.1811V99.6226Z" fill="white"/>
<path d="M33.3321 99.6226H29.0566V103.898H33.3321V99.6226Z" fill="white"/>
<path d="M37.483 99.6226H33.2075V103.898H37.483V99.6226Z" fill="white"/>
<path d="M41.6339 99.6226H37.3585V103.898H41.6339V99.6226Z" fill="white"/>
<path d="M45.7849 99.6226H41.5094V103.898H45.7849V99.6226Z" fill="white"/>
<path d="M49.9359 99.6226H45.6604V103.898H49.9359V99.6226Z" fill="white"/>
<path d="M54.0868 99.6226H49.8113V103.898H54.0868V99.6226Z" fill="white"/>
<path d="M66.5396 99.6226H62.2642V103.898H66.5396V99.6226Z" fill="white"/>
<path d="M74.8415 99.6226H70.566V103.898H74.8415V99.6226Z" fill="white"/>
<path d="M83.1434 99.6226H78.8679V103.898H83.1434V99.6226Z" fill="white"/>
<path d="M91.4453 99.6226H87.1698V103.898H91.4453V99.6226Z" fill="white"/>
<path d="M99.7472 99.6226H95.4717V103.898H99.7472V99.6226Z" fill="white"/>
<path d="M103.898 99.6226H99.6226V103.898H103.898V99.6226Z" fill="white"/>
<path d="M108.049 99.6226H103.774V103.898H108.049V99.6226Z" fill="white"/>
<path d="M112.2 99.6226H107.925V103.898H112.2V99.6226Z" fill="white"/>
<path d="M116.351 99.6226H112.075V103.898H116.351V99.6226Z" fill="white"/>
<path d="M120.502 99.6226H116.226V103.898H120.502V99.6226Z" fill="white"/>
<path d="M124.653 99.6226H120.377V103.898H124.653V99.6226Z" fill="white"/>
<path d="M137.106 99.6226H132.83V103.898H137.106V99.6226Z" fill="white"/>
<path d="M141.257 99.6226H136.981V103.898H141.257V99.6226Z" fill="white"/>
<path d="M149.558 99.6226H145.283V103.898H149.558V99.6226Z" fill="white"/>
<path d="M153.709 99.6226H149.434V103.898H153.709V99.6226Z" fill="white"/>
<path d="M157.86 99.6226H153.585V103.898H157.86V99.6226Z" fill="white"/>
<path d="M170.313 99.6226H166.038V103.898H170.313V99.6226Z" fill="white"/>
<path d="M174.464 99.6226H170.189V103.898H174.464V99.6226Z" fill="white"/>
<path d="M178.615 99.6226H174.34V103.898H178.615V99.6226Z" fill="white"/>
<path d="M182.766 99.6226H178.491V103.898H182.766V99.6226Z" fill="white"/>
<path d="M186.917 99.6226H182.642V103.898H186.917V99.6226Z" fill="white"/>
<path d="M191.068 99.6226H186.792V103.898H191.068V99.6226Z" fill="white"/>
<path d="M195.219 99.6226H190.943V103.898H195.219V99.6226Z" fill="white"/>
<path d="M203.521 99.6226H199.245V103.898H203.521V99.6226Z" fill="white"/>
<path d="M207.672 99.6226H203.396V103.898H207.672V99.6226Z" fill="white"/>
<path d="M211.823 99.6226H207.547V103.898H211.823V99.6226Z" fill="white"/>
<path d="M25.0302 103.774H20.7547V108.049H25.0302V103.774Z" fill="white"/>
<path d="M29.1811 103.774H24.9056V108.049H29.1811V103.774Z" fill="white"/>
<path d="M45.7849 103.774H41.5094V108.049H45.7849V103.774Z" fill="white"/>
<path d="M49.9359 103.774H45.6604V108.049H49.9359V103.774Z" fill="white"/>
<path d="M58.2378 103.774H53.9623V108.049H58.2378V103.774Z" fill="white"/>
<path d="M62.3887 103.774H58.1132V108.049H62.3887V103.774Z" fill="white"/>
<path d="M70.6906 103.774H66.4151V108.049H70.6906V103.774Z" fill="white"/>
<path d="M83.1434 103.774H78.8679V108.049H83.1434V103.774Z" fill="white"/>
<path d="M87.2943 103.774H83.0189V108.049H87.2943V103.774Z" fill="white"/>
<path d="M95.5962 103.774H91.3207V108.049H95.5962V103.774Z" fill="white"/>
<path d="M99.7472 103.774H95.4717V108.049H99.7472V103.774Z" fill="white"/>
<path d="M103.898 103.774H99.6226V108.049H103.898V103.774Z" fill="white"/>
<path d="M120.502 103.774H116.226V108.049H120.502V103.774Z" fill="white"/>
<path d="M137.106 103.774H132.83V108.049H137.106V103.774Z" fill="white"/>
<path d="M149.558 103.774H145.283V108.049H149.558V103.774Z" fill="white"/>
<path d="M178.615 103.774H174.34V108.049H178.615V103.774Z" fill="white"/>
<path d="M195.219 103.774H190.943V108.049H195.219V103.774Z" fill="white"/>
<path d="M207.672 103.774H203.396V108.049H207.672V103.774Z" fill="white"/>
<path d="M16.7283 107.924H12.4528V112.2H16.7283V107.924Z" fill="white"/>
<path d="M20.8792 107.924H16.6038V112.2H20.8792V107.924Z" fill="white"/>
<path d="M29.1811 107.924H24.9056V112.2H29.1811V107.924Z" fill="white"/>
<path d="M37.483 107.924H33.2075V112.2H37.483V107.924Z" fill="white"/>
<path d="M45.7849 107.924H41.5094V112.2H45.7849V107.924Z" fill="white"/>
<path d="M54.0868 107.924H49.8113V112.2H54.0868V107.924Z" fill="white"/>
<path d="M62.3887 107.924H58.1132V112.2H62.3887V107.924Z" fill="white"/>
<path d="M70.6906 107.924H66.4151V112.2H70.6906V107.924Z" fill="white"/>
<path d="M91.4453 107.924H87.1698V112.2H91.4453V107.924Z" fill="white"/>
<path d="M95.5962 107.924H91.3207V112.2H95.5962V107.924Z" fill="white"/>
<path d="M103.898 107.924H99.6226V112.2H103.898V107.924Z" fill="white"/>
<path d="M112.2 107.924H107.925V112.2H112.2V107.924Z" fill="white"/>
<path d="M120.502 107.924H116.226V112.2H120.502V107.924Z" fill="white"/>
<path d="M124.653 107.924H120.377V112.2H124.653V107.924Z" fill="white"/>
<path d="M128.804 107.924H124.528V112.2H128.804V107.924Z" fill="white"/>
<path d="M132.955 107.924H128.679V112.2H132.955V107.924Z" fill="white"/>
<path d="M141.257 107.924H136.981V112.2H141.257V107.924Z" fill="white"/>
<path d="M145.408 107.924H141.132V112.2H145.408V107.924Z" fill="white"/>
<path d="M157.86 107.924H153.585V112.2H157.86V107.924Z" fill="white"/>
<path d="M162.011 107.924H157.736V112.2H162.011V107.924Z" fill="white"/>
<path d="M166.162 107.924H161.887V112.2H166.162V107.924Z" fill="white"/>
<path d="M178.615 107.924H174.34V112.2H178.615V107.924Z" fill="white"/>
<path d="M186.917 107.924H182.642V112.2H186.917V107.924Z" fill="white"/>
<path d="M195.219 107.924H190.943V112.2H195.219V107.924Z" fill="white"/>
<path d="M199.37 107.924H195.094V112.2H199.37V107.924Z" fill="white"/>
<path d="M211.823 107.924H207.547V112.2H211.823V107.924Z" fill="white"/>
<path d="M12.5774 112.075H8.30188V116.351H12.5774V112.075Z" fill="white"/>
<path d="M16.7283 112.075H12.4528V116.351H16.7283V112.075Z" fill="white"/>
<path d="M20.8792 112.075H16.6038V116.351H20.8792V112.075Z" fill="white"/>
<path d="M29.1811 112.075H24.9056V116.351H29.1811V112.075Z" fill="white"/>
<path d="M45.7849 112.075H41.5094V116.351H45.7849V112.075Z" fill="white"/>
<path d="M49.9359 112.075H45.6604V116.351H49.9359V112.075Z" fill="white"/>
<path d="M62.3887 112.075H58.1132V116.351H62.3887V112.075Z" fill="white"/>
<path d="M66.5396 112.075H62.2642V116.351H66.5396V112.075Z" fill="white"/>
<path d="M70.6906 112.075H66.4151V116.351H70.6906V112.075Z" fill="white"/>
<path d="M74.8415 112.075H70.566V116.351H74.8415V112.075Z" fill="white"/>
<path d="M78.9925 112.075H74.717V116.351H78.9925V112.075Z" fill="white"/>
<path d="M87.2943 112.075H83.0189V116.351H87.2943V112.075Z" fill="white"/>
<path d="M95.5962 112.075H91.3207V116.351H95.5962V112.075Z" fill="white"/>
<path d="M99.7472 112.075H95.4717V116.351H99.7472V112.075Z" fill="white"/>
<path d="M103.898 112.075H99.6226V116.351H103.898V112.075Z" fill="white"/>
<path d="M120.502 112.075H116.226V116.351H120.502V112.075Z" fill="white"/>
<path d="M132.955 112.075H128.679V116.351H132.955V112.075Z" fill="white"/>
<path d="M145.408 112.075H141.132V116.351H145.408V112.075Z" fill="white"/>
<path d="M162.011 112.075H157.736V116.351H162.011V112.075Z" fill="white"/>
<path d="M166.162 112.075H161.887V116.351H166.162V112.075Z" fill="white"/>
<path d="M178.615 112.075H174.34V116.351H178.615V112.075Z" fill="white"/>
<path d="M195.219 112.075H190.943V116.351H195.219V112.075Z" fill="white"/>
<path d="M199.37 112.075H195.094V116.351H199.37V112.075Z" fill="white"/>
<path d="M203.521 112.075H199.245V116.351H203.521V112.075Z" fill="white"/>
<path d="M29.1811 116.226H24.9056V120.502H29.1811V116.226Z" fill="white"/>
<path d="M33.3321 116.226H29.0566V120.502H33.3321V116.226Z" fill="white"/>
<path d="M37.483 116.226H33.2075V120.502H37.483V116.226Z" fill="white"/>
<path d="M41.6339 116.226H37.3585V120.502H41.6339V116.226Z" fill="white"/>
<path d="M45.7849 116.226H41.5094V120.502H45.7849V116.226Z" fill="white"/>
<path d="M78.9925 116.226H74.717V120.502H78.9925V116.226Z" fill="white"/>
<path d="M91.4453 116.226H87.1698V120.502H91.4453V116.226Z" fill="white"/>
<path d="M95.5962 116.226H91.3207V120.502H95.5962V116.226Z" fill="white"/>
<path d="M99.7472 116.226H95.4717V120.502H99.7472V116.226Z" fill="white"/>
<path d="M103.898 116.226H99.6226V120.502H103.898V116.226Z" fill="white"/>
<path d="M108.049 116.226H103.774V120.502H108.049V116.226Z" fill="white"/>
<path d="M112.2 116.226H107.925V120.502H112.2V116.226Z" fill="white"/>
<path d="M116.351 116.226H112.075V120.502H116.351V116.226Z" fill="white"/>
<path d="M120.502 116.226H116.226V120.502H120.502V116.226Z" fill="white"/>
<path d="M124.653 116.226H120.377V120.502H124.653V116.226Z" fill="white"/>
<path d="M128.804 116.226H124.528V120.502H128.804V116.226Z" fill="white"/>
<path d="M141.257 116.226H136.981V120.502H141.257V116.226Z" fill="white"/>
<path d="M145.408 116.226H141.132V120.502H145.408V116.226Z" fill="white"/>
<path d="M149.558 116.226H145.283V120.502H149.558V116.226Z" fill="white"/>
<path d="M153.709 116.226H149.434V120.502H153.709V116.226Z" fill="white"/>
<path d="M157.86 116.226H153.585V120.502H157.86V116.226Z" fill="white"/>
<path d="M170.313 116.226H166.038V120.502H170.313V116.226Z" fill="white"/>
<path d="M174.464 116.226H170.189V120.502H174.464V116.226Z" fill="white"/>
<path d="M178.615 116.226H174.34V120.502H178.615V116.226Z" fill="white"/>
<path d="M182.766 116.226H178.491V120.502H182.766V116.226Z" fill="white"/>
<path d="M186.917 116.226H182.642V120.502H186.917V116.226Z" fill="white"/>
<path d="M191.068 116.226H186.792V120.502H191.068V116.226Z" fill="white"/>
<path d="M195.219 116.226H190.943V120.502H195.219V116.226Z" fill="white"/>
<path d="M211.823 116.226H207.547V120.502H211.823V116.226Z" fill="white"/>
<path d="M20.8792 120.377H16.6038V124.653H20.8792V120.377Z" fill="white"/>
<path d="M29.1811 120.377H24.9056V124.653H29.1811V120.377Z" fill="white"/>
<path d="M41.6339 120.377H37.3585V124.653H41.6339V120.377Z" fill="white"/>
<path d="M49.9359 120.377H45.6604V124.653H49.9359V120.377Z" fill="white"/>
<path d="M58.2378 120.377H53.9623V124.653H58.2378V120.377Z" fill="white"/>
<path d="M62.3887 120.377H58.1132V124.653H62.3887V120.377Z" fill="white"/>
<path d="M66.5396 120.377H62.2642V124.653H66.5396V120.377Z" fill="white"/>
<path d="M83.1434 120.377H78.8679V124.653H83.1434V120.377Z" fill="white"/>
<path d="M87.2943 120.377H83.0189V124.653H87.2943V120.377Z" fill="white"/>
<path d="M91.4453 120.377H87.1698V124.653H91.4453V120.377Z" fill="white"/>
<path d="M95.5962 120.377H91.3207V124.653H95.5962V120.377Z" fill="white"/>
<path d="M99.7472 120.377H95.4717V124.653H99.7472V120.377Z" fill="white"/>
<path d="M103.898 120.377H99.6226V124.653H103.898V120.377Z" fill="white"/>
<path d="M108.049 120.377H103.774V124.653H108.049V120.377Z" fill="white"/>
<path d="M112.2 120.377H107.925V124.653H112.2V120.377Z" fill="white"/>
<path d="M120.502 120.377H116.226V124.653H120.502V120.377Z" fill="white"/>
<path d="M128.804 120.377H124.528V124.653H128.804V120.377Z" fill="white"/>
<path d="M141.257 120.377H136.981V124.653H141.257V120.377Z" fill="white"/>
<path d="M145.408 120.377H141.132V124.653H145.408V120.377Z" fill="white"/>
<path d="M149.558 120.377H145.283V124.653H149.558V120.377Z" fill="white"/>
<path d="M166.162 120.377H161.887V124.653H166.162V120.377Z" fill="white"/>
<path d="M170.313 120.377H166.038V124.653H170.313V120.377Z" fill="white"/>
<path d="M178.615 120.377H174.34V124.653H178.615V120.377Z" fill="white"/>
<path d="M182.766 120.377H178.491V124.653H182.766V120.377Z" fill="white"/>
<path d="M191.068 120.377H186.792V124.653H191.068V120.377Z" fill="white"/>
<path d="M207.672 120.377H203.396V124.653H207.672V120.377Z" fill="white"/>
<path d="M211.823 120.377H207.547V124.653H211.823V120.377Z" fill="white"/>
<path d="M12.5774 124.528H8.30188V128.804H12.5774V124.528Z" fill="white"/>
<path d="M16.7283 124.528H12.4528V128.804H16.7283V124.528Z" fill="white"/>
<path d="M20.8792 124.528H16.6038V128.804H20.8792V124.528Z" fill="white"/>
<path d="M25.0302 124.528H20.7547V128.804H25.0302V124.528Z" fill="white"/>
<path d="M29.1811 124.528H24.9056V128.804H29.1811V124.528Z" fill="white"/>
<path d="M33.3321 124.528H29.0566V128.804H33.3321V124.528Z" fill="white"/>
<path d="M37.483 124.528H33.2075V128.804H37.483V124.528Z" fill="white"/>
<path d="M41.6339 124.528H37.3585V128.804H41.6339V124.528Z" fill="white"/>
<path d="M45.7849 124.528H41.5094V128.804H45.7849V124.528Z" fill="white"/>
<path d="M49.9359 124.528H45.6604V128.804H49.9359V124.528Z" fill="white"/>
<path d="M54.0868 124.528H49.8113V128.804H54.0868V124.528Z" fill="white"/>
<path d="M58.2378 124.528H53.9623V128.804H58.2378V124.528Z" fill="white"/>
<path d="M78.9925 124.528H74.717V128.804H78.9925V124.528Z" fill="white"/>
<path d="M83.1434 124.528H78.8679V128.804H83.1434V124.528Z" fill="white"/>
<path d="M95.5962 124.528H91.3207V128.804H95.5962V124.528Z" fill="white"/>
<path d="M99.7472 124.528H95.4717V128.804H99.7472V124.528Z" fill="white"/>
<path d="M108.049 124.528H103.774V128.804H108.049V124.528Z" fill="white"/>
<path d="M112.2 124.528H107.925V128.804H112.2V124.528Z" fill="white"/>
<path d="M116.351 124.528H112.075V128.804H116.351V124.528Z" fill="white"/>
<path d="M124.653 124.528H120.377V128.804H124.653V124.528Z" fill="white"/>
<path d="M128.804 124.528H124.528V128.804H128.804V124.528Z" fill="white"/>
<path d="M141.257 124.528H136.981V128.804H141.257V124.528Z" fill="white"/>
<path d="M153.709 124.528H149.434V128.804H153.709V124.528Z" fill="white"/>
<path d="M157.86 124.528H153.585V128.804H157.86V124.528Z" fill="white"/>
<path d="M162.011 124.528H157.736V128.804H162.011V124.528Z" fill="white"/>
<path d="M166.162 124.528H161.887V128.804H166.162V124.528Z" fill="white"/>
<path d="M174.464 124.528H170.189V128.804H174.464V124.528Z" fill="white"/>
<path d="M178.615 124.528H174.34V128.804H178.615V124.528Z" fill="white"/>
<path d="M195.219 124.528H190.943V128.804H195.219V124.528Z" fill="white"/>
<path d="M199.37 124.528H195.094V128.804H199.37V124.528Z" fill="white"/>
<path d="M203.521 124.528H199.245V128.804H203.521V124.528Z" fill="white"/>
<path d="M12.5774 128.679H8.30188V132.955H12.5774V128.679Z" fill="white"/>
<path d="M20.8792 128.679H16.6038V132.955H20.8792V128.679Z" fill="white"/>
<path d="M29.1811 128.679H24.9056V132.955H29.1811V128.679Z" fill="white"/>
<path d="M33.3321 128.679H29.0566V132.955H33.3321V128.679Z" fill="white"/>
<path d="M41.6339 128.679H37.3585V132.955H41.6339V128.679Z" fill="white"/>
<path d="M54.0868 128.679H49.8113V132.955H54.0868V128.679Z" fill="white"/>
<path d="M74.8415 128.679H70.566V132.955H74.8415V128.679Z" fill="white"/>
<path d="M78.9925 128.679H74.717V132.955H78.9925V128.679Z" fill="white"/>
<path d="M87.2943 128.679H83.0189V132.955H87.2943V128.679Z" fill="white"/>
<path d="M108.049 128.679H103.774V132.955H108.049V128.679Z" fill="white"/>
<path d="M116.351 128.679H112.075V132.955H116.351V128.679Z" fill="white"/>
<path d="M137.106 128.679H132.83V132.955H137.106V128.679Z" fill="white"/>
<path d="M145.408 128.679H141.132V132.955H145.408V128.679Z" fill="white"/>
<path d="M166.162 128.679H161.887V132.955H166.162V128.679Z" fill="white"/>
<path d="M174.464 128.679H170.189V132.955H174.464V128.679Z" fill="white"/>
<path d="M178.615 128.679H174.34V132.955H178.615V128.679Z" fill="white"/>
<path d="M186.917 128.679H182.642V132.955H186.917V128.679Z" fill="white"/>
<path d="M191.068 128.679H186.792V132.955H191.068V128.679Z" fill="white"/>
<path d="M203.521 128.679H199.245V132.955H203.521V128.679Z" fill="white"/>
<path d="M16.7283 132.83H12.4528V137.106H16.7283V132.83Z" fill="white"/>
<path d="M25.0302 132.83H20.7547V137.106H25.0302V132.83Z" fill="white"/>
<path d="M37.483 132.83H33.2075V137.106H37.483V132.83Z" fill="white"/>
<path d="M58.2378 132.83H53.9623V137.106H58.2378V132.83Z" fill="white"/>
<path d="M66.5396 132.83H62.2642V137.106H66.5396V132.83Z" fill="white"/>
<path d="M70.6906 132.83H66.4151V137.106H70.6906V132.83Z" fill="white"/>
<path d="M87.2943 132.83H83.0189V137.106H87.2943V132.83Z" fill="white"/>
<path d="M91.4453 132.83H87.1698V137.106H91.4453V132.83Z" fill="white"/>
<path d="M95.5962 132.83H91.3207V137.106H95.5962V132.83Z" fill="white"/>
<path d="M103.898 132.83H99.6226V137.106H103.898V132.83Z" fill="white"/>
<path d="M108.049 132.83H103.774V137.106H108.049V132.83Z" fill="white"/>
<path d="M116.351 132.83H112.075V137.106H116.351V132.83Z" fill="white"/>
<path d="M128.804 132.83H124.528V137.106H128.804V132.83Z" fill="white"/>
<path d="M141.257 132.83H136.981V137.106H141.257V132.83Z" fill="white"/>
<path d="M145.408 132.83H141.132V137.106H145.408V132.83Z" fill="white"/>
<path d="M149.558 132.83H145.283V137.106H149.558V132.83Z" fill="white"/>
<path d="M153.709 132.83H149.434V137.106H153.709V132.83Z" fill="white"/>
<path d="M157.86 132.83H153.585V137.106H157.86V132.83Z" fill="white"/>
<path d="M162.011 132.83H157.736V137.106H162.011V132.83Z" fill="white"/>
<path d="M166.162 132.83H161.887V137.106H166.162V132.83Z" fill="white"/>
<path d="M170.313 132.83H166.038V137.106H170.313V132.83Z" fill="white"/>
<path d="M174.464 132.83H170.189V137.106H174.464V132.83Z" fill="white"/>
<path d="M178.615 132.83H174.34V137.106H178.615V132.83Z" fill="white"/>
<path d="M182.766 132.83H178.491V137.106H182.766V132.83Z" fill="white"/>
<path d="M186.917 132.83H182.642V137.106H186.917V132.83Z" fill="white"/>
<path d="M191.068 132.83H186.792V137.106H191.068V132.83Z" fill="white"/>
<path d="M195.219 132.83H190.943V137.106H195.219V132.83Z" fill="white"/>
<path d="M207.672 132.83H203.396V137.106H207.672V132.83Z" fill="white"/>
<path d="M211.823 132.83H207.547V137.106H211.823V132.83Z" fill="white"/>
<path d="M16.7283 136.981H12.4528V141.257H16.7283V136.981Z" fill="white"/>
<path d="M25.0302 136.981H20.7547V141.257H25.0302V136.981Z" fill="white"/>
<path d="M29.1811 136.981H24.9056V141.257H29.1811V136.981Z" fill="white"/>
<path d="M41.6339 136.981H37.3585V141.257H41.6339V136.981Z" fill="white"/>
<path d="M45.7849 136.981H41.5094V141.257H45.7849V136.981Z" fill="white"/>
<path d="M54.0868 136.981H49.8113V141.257H54.0868V136.981Z" fill="white"/>
<path d="M70.6906 136.981H66.4151V141.257H70.6906V136.981Z" fill="white"/>
<path d="M74.8415 136.981H70.566V141.257H74.8415V136.981Z" fill="white"/>
<path d="M78.9925 136.981H74.717V141.257H78.9925V136.981Z" fill="white"/>
<path d="M91.4453 136.981H87.1698V141.257H91.4453V136.981Z" fill="white"/>
<path d="M95.5962 136.981H91.3207V141.257H95.5962V136.981Z" fill="white"/>
<path d="M103.898 136.981H99.6226V141.257H103.898V136.981Z" fill="white"/>
<path d="M108.049 136.981H103.774V141.257H108.049V136.981Z" fill="white"/>
<path d="M124.653 136.981H120.377V141.257H124.653V136.981Z" fill="white"/>
<path d="M128.804 136.981H124.528V141.257H128.804V136.981Z" fill="white"/>
<path d="M137.106 136.981H132.83V141.257H137.106V136.981Z" fill="white"/>
<path d="M149.558 136.981H145.283V141.257H149.558V136.981Z" fill="white"/>
<path d="M157.86 136.981H153.585V141.257H157.86V136.981Z" fill="white"/>
<path d="M170.313 136.981H166.038V141.257H170.313V136.981Z" fill="white"/>
<path d="M178.615 136.981H174.34V141.257H178.615V136.981Z" fill="white"/>
<path d="M195.219 136.981H190.943V141.257H195.219V136.981Z" fill="white"/>
<path d="M207.672 136.981H203.396V141.257H207.672V136.981Z" fill="white"/>
<path d="M25.0302 141.132H20.7547V145.408H25.0302V141.132Z" fill="white"/>
<path d="M29.1811 141.132H24.9056V145.408H29.1811V141.132Z" fill="white"/>
<path d="M37.483 141.132H33.2075V145.408H37.483V141.132Z" fill="white"/>
<path d="M41.6339 141.132H37.3585V145.408H41.6339V141.132Z" fill="white"/>
<path d="M54.0868 141.132H49.8113V145.408H54.0868V141.132Z" fill="white"/>
<path d="M66.5396 141.132H62.2642V145.408H66.5396V141.132Z" fill="white"/>
<path d="M74.8415 141.132H70.566V145.408H74.8415V141.132Z" fill="white"/>
<path d="M87.2943 141.132H83.0189V145.408H87.2943V141.132Z" fill="white"/>
<path d="M91.4453 141.132H87.1698V145.408H91.4453V141.132Z" fill="white"/>
<path d="M95.5962 141.132H91.3207V145.408H95.5962V141.132Z" fill="white"/>
<path d="M99.7472 141.132H95.4717V145.408H99.7472V141.132Z" fill="white"/>
<path d="M112.2 141.132H107.925V145.408H112.2V141.132Z" fill="white"/>
<path d="M128.804 141.132H124.528V145.408H128.804V141.132Z" fill="white"/>
<path d="M157.86 141.132H153.585V145.408H157.86V141.132Z" fill="white"/>
<path d="M162.011 141.132H157.736V145.408H162.011V141.132Z" fill="white"/>
<path d="M166.162 141.132H161.887V145.408H166.162V141.132Z" fill="white"/>
<path d="M174.464 141.132H170.189V145.408H174.464V141.132Z" fill="white"/>
<path d="M178.615 141.132H174.34V145.408H178.615V141.132Z" fill="white"/>
<path d="M182.766 141.132H178.491V145.408H182.766V141.132Z" fill="white"/>
<path d="M195.219 141.132H190.943V145.408H195.219V141.132Z" fill="white"/>
<path d="M199.37 141.132H195.094V145.408H199.37V141.132Z" fill="white"/>
<path d="M203.521 141.132H199.245V145.408H203.521V141.132Z" fill="white"/>
<path d="M12.5774 145.283H8.30188V149.558H12.5774V145.283Z" fill="white"/>
<path d="M20.8792 145.283H16.6038V149.558H20.8792V145.283Z" fill="white"/>
<path d="M25.0302 145.283H20.7547V149.558H25.0302V145.283Z" fill="white"/>
<path d="M33.3321 145.283H29.0566V149.558H33.3321V145.283Z" fill="white"/>
<path d="M45.7849 145.283H41.5094V149.558H45.7849V145.283Z" fill="white"/>
<path d="M54.0868 145.283H49.8113V149.558H54.0868V145.283Z" fill="white"/>
<path d="M58.2378 145.283H53.9623V149.558H58.2378V145.283Z" fill="white"/>
<path d="M62.3887 145.283H58.1132V149.558H62.3887V145.283Z" fill="white"/>
<path d="M66.5396 145.283H62.2642V149.558H66.5396V145.283Z" fill="white"/>
<path d="M74.8415 145.283H70.566V149.558H74.8415V145.283Z" fill="white"/>
<path d="M87.2943 145.283H83.0189V149.558H87.2943V145.283Z" fill="white"/>
<path d="M99.7472 145.283H95.4717V149.558H99.7472V145.283Z" fill="white"/>
<path d="M103.898 145.283H99.6226V149.558H103.898V145.283Z" fill="white"/>
<path d="M108.049 145.283H103.774V149.558H108.049V145.283Z" fill="white"/>
<path d="M112.2 145.283H107.925V149.558H112.2V145.283Z" fill="white"/>
<path d="M128.804 145.283H124.528V149.558H128.804V145.283Z" fill="white"/>
<path d="M141.257 145.283H136.981V149.558H141.257V145.283Z" fill="white"/>
<path d="M162.011 145.283H157.736V149.558H162.011V145.283Z" fill="white"/>
<path d="M166.162 145.283H161.887V149.558H166.162V145.283Z" fill="white"/>
<path d="M174.464 145.283H170.189V149.558H174.464V145.283Z" fill="white"/>
<path d="M178.615 145.283H174.34V149.558H178.615V145.283Z" fill="white"/>
<path d="M182.766 145.283H178.491V149.558H182.766V145.283Z" fill="white"/>
<path d="M186.917 145.283H182.642V149.558H186.917V145.283Z" fill="white"/>
<path d="M191.068 145.283H186.792V149.558H191.068V145.283Z" fill="white"/>
<path d="M203.521 145.283H199.245V149.558H203.521V145.283Z" fill="white"/>
<path d="M12.5774 149.434H8.30188V153.709H12.5774V149.434Z" fill="white"/>
<path d="M37.483 149.434H33.2075V153.709H37.483V149.434Z" fill="white"/>
<path d="M41.6339 149.434H37.3585V153.709H41.6339V149.434Z" fill="white"/>
<path d="M45.7849 149.434H41.5094V153.709H45.7849V149.434Z" fill="white"/>
<path d="M49.9359 149.434H45.6604V153.709H49.9359V149.434Z" fill="white"/>
<path d="M58.2378 149.434H53.9623V153.709H58.2378V149.434Z" fill="white"/>
<path d="M62.3887 149.434H58.1132V153.709H62.3887V149.434Z" fill="white"/>
<path d="M83.1434 149.434H78.8679V153.709H83.1434V149.434Z" fill="white"/>
<path d="M95.5962 149.434H91.3207V153.709H95.5962V149.434Z" fill="white"/>
<path d="M120.502 149.434H116.226V153.709H120.502V149.434Z" fill="white"/>
<path d="M137.106 149.434H132.83V153.709H137.106V149.434Z" fill="white"/>
<path d="M145.408 149.434H141.132V153.709H145.408V149.434Z" fill="white"/>
<path d="M153.709 149.434H149.434V153.709H153.709V149.434Z" fill="white"/>
<path d="M157.86 149.434H153.585V153.709H157.86V149.434Z" fill="white"/>
<path d="M162.011 149.434H157.736V153.709H162.011V149.434Z" fill="white"/>
<path d="M170.313 149.434H166.038V153.709H170.313V149.434Z" fill="white"/>
<path d="M178.615 149.434H174.34V153.709H178.615V149.434Z" fill="white"/>
<path d="M182.766 149.434H178.491V153.709H182.766V149.434Z" fill="white"/>
<path d="M186.917 149.434H182.642V153.709H186.917V149.434Z" fill="white"/>
<path d="M191.068 149.434H186.792V153.709H191.068V149.434Z" fill="white"/>
<path d="M195.219 149.434H190.943V153.709H195.219V149.434Z" fill="white"/>
<path d="M199.37 149.434H195.094V153.709H199.37V149.434Z" fill="white"/>
<path d="M207.672 149.434H203.396V153.709H207.672V149.434Z" fill="white"/>
<path d="M211.823 149.434H207.547V153.709H211.823V149.434Z" fill="white"/>
<path d="M20.8792 153.585H16.6038V157.86H20.8792V153.585Z" fill="white"/>
<path d="M25.0302 153.585H20.7547V157.86H25.0302V153.585Z" fill="white"/>
<path d="M58.2378 153.585H53.9623V157.86H58.2378V153.585Z" fill="white"/>
<path d="M70.6906 153.585H66.4151V157.86H70.6906V153.585Z" fill="white"/>
<path d="M74.8415 153.585H70.566V157.86H74.8415V153.585Z" fill="white"/>
<path d="M87.2943 153.585H83.0189V157.86H87.2943V153.585Z" fill="white"/>
<path d="M91.4453 153.585H87.1698V157.86H91.4453V153.585Z" fill="white"/>
<path d="M103.898 153.585H99.6226V157.86H103.898V153.585Z" fill="white"/>
<path d="M112.2 153.585H107.925V157.86H112.2V153.585Z" fill="white"/>
<path d="M116.351 153.585H112.075V157.86H116.351V153.585Z" fill="white"/>
<path d="M120.502 153.585H116.226V157.86H120.502V153.585Z" fill="white"/>
<path d="M128.804 153.585H124.528V157.86H128.804V153.585Z" fill="white"/>
<path d="M137.106 153.585H132.83V157.86H137.106V153.585Z" fill="white"/>
<path d="M145.408 153.585H141.132V157.86H145.408V153.585Z" fill="white"/>
<path d="M149.558 153.585H145.283V157.86H149.558V153.585Z" fill="white"/>
<path d="M153.709 153.585H149.434V157.86H153.709V153.585Z" fill="white"/>
<path d="M166.162 153.585H161.887V157.86H166.162V153.585Z" fill="white"/>
<path d="M170.313 153.585H166.038V157.86H170.313V153.585Z" fill="white"/>
<path d="M178.615 153.585H174.34V157.86H178.615V153.585Z" fill="white"/>
<path d="M195.219 153.585H190.943V157.86H195.219V153.585Z" fill="white"/>
<path d="M211.823 153.585H207.547V157.86H211.823V153.585Z" fill="white"/>
<path d="M12.5774 157.736H8.30188V162.011H12.5774V157.736Z" fill="white"/>
<path d="M37.483 157.736H33.2075V162.011H37.483V157.736Z" fill="white"/>
<path d="M45.7849 157.736H41.5094V162.011H45.7849V157.736Z" fill="white"/>
<path d="M49.9359 157.736H45.6604V162.011H49.9359V157.736Z" fill="white"/>
<path d="M54.0868 157.736H49.8113V162.011H54.0868V157.736Z" fill="white"/>
<path d="M58.2378 157.736H53.9623V162.011H58.2378V157.736Z" fill="white"/>
<path d="M66.5396 157.736H62.2642V162.011H66.5396V157.736Z" fill="white"/>
<path d="M91.4453 157.736H87.1698V162.011H91.4453V157.736Z" fill="white"/>
<path d="M95.5962 157.736H91.3207V162.011H95.5962V157.736Z" fill="white"/>
<path d="M99.7472 157.736H95.4717V162.011H99.7472V157.736Z" fill="white"/>
<path d="M108.049 157.736H103.774V162.011H108.049V157.736Z" fill="white"/>
<path d="M112.2 157.736H107.925V162.011H112.2V157.736Z" fill="white"/>
<path d="M116.351 157.736H112.075V162.011H116.351V157.736Z" fill="white"/>
<path d="M128.804 157.736H124.528V162.011H128.804V157.736Z" fill="white"/>
<path d="M137.106 157.736H132.83V162.011H137.106V157.736Z" fill="white"/>
<path d="M141.257 157.736H136.981V162.011H141.257V157.736Z" fill="white"/>
<path d="M149.558 157.736H145.283V162.011H149.558V157.736Z" fill="white"/>
<path d="M153.709 157.736H149.434V162.011H153.709V157.736Z" fill="white"/>
<path d="M157.86 157.736H153.585V162.011H157.86V157.736Z" fill="white"/>
<path d="M162.011 157.736H157.736V162.011H162.011V157.736Z" fill="white"/>
<path d="M166.162 157.736H161.887V162.011H166.162V157.736Z" fill="white"/>
<path d="M174.464 157.736H170.189V162.011H174.464V157.736Z" fill="white"/>
<path d="M178.615 157.736H174.34V162.011H178.615V157.736Z" fill="white"/>
<path d="M182.766 157.736H178.491V162.011H182.766V157.736Z" fill="white"/>
<path d="M191.068 157.736H186.792V162.011H191.068V157.736Z" fill="white"/>
<path d="M195.219 157.736H190.943V162.011H195.219V157.736Z" fill="white"/>
<path d="M199.37 157.736H195.094V162.011H199.37V157.736Z" fill="white"/>
<path d="M203.521 157.736H199.245V162.011H203.521V157.736Z" fill="white"/>
<path d="M207.672 157.736H203.396V162.011H207.672V157.736Z" fill="white"/>
<path d="M211.823 157.736H207.547V162.011H211.823V157.736Z" fill="white"/>
<path d="M20.8792 161.887H16.6038V166.162H20.8792V161.887Z" fill="white"/>
<path d="M33.3321 161.887H29.0566V166.162H33.3321V161.887Z" fill="white"/>
<path d="M41.6339 161.887H37.3585V166.162H41.6339V161.887Z" fill="white"/>
<path d="M45.7849 161.887H41.5094V166.162H45.7849V161.887Z" fill="white"/>
<path d="M49.9359 161.887H45.6604V166.162H49.9359V161.887Z" fill="white"/>
<path d="M66.5396 161.887H62.2642V166.162H66.5396V161.887Z" fill="white"/>
<path d="M70.6906 161.887H66.4151V166.162H70.6906V161.887Z" fill="white"/>
<path d="M74.8415 161.887H70.566V166.162H74.8415V161.887Z" fill="white"/>
<path d="M87.2943 161.887H83.0189V166.162H87.2943V161.887Z" fill="white"/>
<path d="M95.5962 161.887H91.3207V166.162H95.5962V161.887Z" fill="white"/>
<path d="M99.7472 161.887H95.4717V166.162H99.7472V161.887Z" fill="white"/>
<path d="M108.049 161.887H103.774V166.162H108.049V161.887Z" fill="white"/>
<path d="M112.2 161.887H107.925V166.162H112.2V161.887Z" fill="white"/>
<path d="M116.351 161.887H112.075V166.162H116.351V161.887Z" fill="white"/>
<path d="M128.804 161.887H124.528V166.162H128.804V161.887Z" fill="white"/>
<path d="M132.955 161.887H128.679V166.162H132.955V161.887Z" fill="white"/>
<path d="M137.106 161.887H132.83V166.162H137.106V161.887Z" fill="white"/>
<path d="M157.86 161.887H153.585V166.162H157.86V161.887Z" fill="white"/>
<path d="M162.011 161.887H157.736V166.162H162.011V161.887Z" fill="white"/>
<path d="M174.464 161.887H170.189V166.162H174.464V161.887Z" fill="white"/>
<path d="M178.615 161.887H174.34V166.162H178.615V161.887Z" fill="white"/>
<path d="M182.766 161.887H178.491V166.162H182.766V161.887Z" fill="white"/>
<path d="M186.917 161.887H182.642V166.162H186.917V161.887Z" fill="white"/>
<path d="M191.068 161.887H186.792V166.162H191.068V161.887Z" fill="white"/>
<path d="M207.672 161.887H203.396V166.162H207.672V161.887Z" fill="white"/>
<path d="M16.7283 166.038H12.4528V170.313H16.7283V166.038Z" fill="white"/>
<path d="M33.3321 166.038H29.0566V170.313H33.3321V166.038Z" fill="white"/>
<path d="M37.483 166.038H33.2075V170.313H37.483V166.038Z" fill="white"/>
<path d="M45.7849 166.038H41.5094V170.313H45.7849V166.038Z" fill="white"/>
<path d="M49.9359 166.038H45.6604V170.313H49.9359V166.038Z" fill="white"/>
<path d="M54.0868 166.038H49.8113V170.313H54.0868V166.038Z" fill="white"/>
<path d="M58.2378 166.038H53.9623V170.313H58.2378V166.038Z" fill="white"/>
<path d="M78.9925 166.038H74.717V170.313H78.9925V166.038Z" fill="white"/>
<path d="M87.2943 166.038H83.0189V170.313H87.2943V166.038Z" fill="white"/>
<path d="M99.7472 166.038H95.4717V170.313H99.7472V166.038Z" fill="white"/>
<path d="M108.049 166.038H103.774V170.313H108.049V166.038Z" fill="white"/>
<path d="M112.2 166.038H107.925V170.313H112.2V166.038Z" fill="white"/>
<path d="M116.351 166.038H112.075V170.313H116.351V166.038Z" fill="white"/>
<path d="M120.502 166.038H116.226V170.313H120.502V166.038Z" fill="white"/>
<path d="M124.653 166.038H120.377V170.313H124.653V166.038Z" fill="white"/>
<path d="M128.804 166.038H124.528V170.313H128.804V166.038Z" fill="white"/>
<path d="M132.955 166.038H128.679V170.313H132.955V166.038Z" fill="white"/>
<path d="M137.106 166.038H132.83V170.313H137.106V166.038Z" fill="white"/>
<path d="M145.408 166.038H141.132V170.313H145.408V166.038Z" fill="white"/>
<path d="M149.558 166.038H145.283V170.313H149.558V166.038Z" fill="white"/>
<path d="M153.709 166.038H149.434V170.313H153.709V166.038Z" fill="white"/>
<path d="M157.86 166.038H153.585V170.313H157.86V166.038Z" fill="white"/>
<path d="M170.313 166.038H166.038V170.313H170.313V166.038Z" fill="white"/>
<path d="M174.464 166.038H170.189V170.313H174.464V166.038Z" fill="white"/>
<path d="M178.615 166.038H174.34V170.313H178.615V166.038Z" fill="white"/>
<path d="M182.766 166.038H178.491V170.313H182.766V166.038Z" fill="white"/>
<path d="M186.917 166.038H182.642V170.313H186.917V166.038Z" fill="white"/>
<path d="M191.068 166.038H186.792V170.313H191.068V166.038Z" fill="white"/>
<path d="M207.672 166.038H203.396V170.313H207.672V166.038Z" fill="white"/>
<path d="M211.823 166.038H207.547V170.313H211.823V166.038Z" fill="white"/>
<path d="M16.7283 170.189H12.4528V174.464H16.7283V170.189Z" fill="white"/>
<path d="M20.8792 170.189H16.6038V174.464H20.8792V170.189Z" fill="white"/>
<path d="M25.0302 170.189H20.7547V174.464H25.0302V170.189Z" fill="white"/>
<path d="M54.0868 170.189H49.8113V174.464H54.0868V170.189Z" fill="white"/>
<path d="M66.5396 170.189H62.2642V174.464H66.5396V170.189Z" fill="white"/>
<path d="M74.8415 170.189H70.566V174.464H74.8415V170.189Z" fill="white"/>
<path d="M78.9925 170.189H74.717V174.464H78.9925V170.189Z" fill="white"/>
<path d="M83.1434 170.189H78.8679V174.464H83.1434V170.189Z" fill="white"/>
<path d="M91.4453 170.189H87.1698V174.464H91.4453V170.189Z" fill="white"/>
<path d="M99.7472 170.189H95.4717V174.464H99.7472V170.189Z" fill="white"/>
<path d="M103.898 170.189H99.6226V174.464H103.898V170.189Z" fill="white"/>
<path d="M108.049 170.189H103.774V174.464H108.049V170.189Z" fill="white"/>
<path d="M116.351 170.189H112.075V174.464H116.351V170.189Z" fill="white"/>
<path d="M128.804 170.189H124.528V174.464H128.804V170.189Z" fill="white"/>
<path d="M137.106 170.189H132.83V174.464H137.106V170.189Z" fill="white"/>
<path d="M145.408 170.189H141.132V174.464H145.408V170.189Z" fill="white"/>
<path d="M166.162 170.189H161.887V174.464H166.162V170.189Z" fill="white"/>
<path d="M170.313 170.189H166.038V174.464H170.313V170.189Z" fill="white"/>
<path d="M191.068 170.189H186.792V174.464H191.068V170.189Z" fill="white"/>
<path d="M195.219 170.189H190.943V174.464H195.219V170.189Z" fill="white"/>
<path d="M207.672 170.189H203.396V174.464H207.672V170.189Z" fill="white"/>
<path d="M211.823 170.189H207.547V174.464H211.823V170.189Z" fill="white"/>
<path d="M12.5774 174.34H8.30188V178.615H12.5774V174.34Z" fill="white"/>
<path d="M16.7283 174.34H12.4528V178.615H16.7283V174.34Z" fill="white"/>
<path d="M20.8792 174.34H16.6038V178.615H20.8792V174.34Z" fill="white"/>
<path d="M37.483 174.34H33.2075V178.615H37.483V174.34Z" fill="white"/>
<path d="M41.6339 174.34H37.3585V178.615H41.6339V174.34Z" fill="white"/>
<path d="M49.9359 174.34H45.6604V178.615H49.9359V174.34Z" fill="white"/>
<path d="M54.0868 174.34H49.8113V178.615H54.0868V174.34Z" fill="white"/>
<path d="M62.3887 174.34H58.1132V178.615H62.3887V174.34Z" fill="white"/>
<path d="M66.5396 174.34H62.2642V178.615H66.5396V174.34Z" fill="white"/>
<path d="M74.8415 174.34H70.566V178.615H74.8415V174.34Z" fill="white"/>
<path d="M78.9925 174.34H74.717V178.615H78.9925V174.34Z" fill="white"/>
<path d="M83.1434 174.34H78.8679V178.615H83.1434V174.34Z" fill="white"/>
<path d="M91.4453 174.34H87.1698V178.615H91.4453V174.34Z" fill="white"/>
<path d="M103.898 174.34H99.6226V178.615H103.898V174.34Z" fill="white"/>
<path d="M108.049 174.34H103.774V178.615H108.049V174.34Z" fill="white"/>
<path d="M112.2 174.34H107.925V178.615H112.2V174.34Z" fill="white"/>
<path d="M116.351 174.34H112.075V178.615H116.351V174.34Z" fill="white"/>
<path d="M120.502 174.34H116.226V178.615H120.502V174.34Z" fill="white"/>
<path d="M128.804 174.34H124.528V178.615H128.804V174.34Z" fill="white"/>
<path d="M137.106 174.34H132.83V178.615H137.106V174.34Z" fill="white"/>
<path d="M141.257 174.34H136.981V178.615H141.257V174.34Z" fill="white"/>
<path d="M149.558 174.34H145.283V178.615H149.558V174.34Z" fill="white"/>
<path d="M162.011 174.34H157.736V178.615H162.011V174.34Z" fill="white"/>
<path d="M166.162 174.34H161.887V178.615H166.162V174.34Z" fill="white"/>
<path d="M170.313 174.34H166.038V178.615H170.313V174.34Z" fill="white"/>
<path d="M174.464 174.34H170.189V178.615H174.464V174.34Z" fill="white"/>
<path d="M178.615 174.34H174.34V178.615H178.615V174.34Z" fill="white"/>
<path d="M182.766 174.34H178.491V178.615H182.766V174.34Z" fill="white"/>
<path d="M186.917 174.34H182.642V178.615H186.917V174.34Z" fill="white"/>
<path d="M191.068 174.34H186.792V178.615H191.068V174.34Z" fill="white"/>
<path d="M195.219 174.34H190.943V178.615H195.219V174.34Z" fill="white"/>
<path d="M199.37 174.34H195.094V178.615H199.37V174.34Z" fill="white"/>
<path d="M203.521 174.34H199.245V178.615H203.521V174.34Z" fill="white"/>
<path d="M211.823 174.34H207.547V178.615H211.823V174.34Z" fill="white"/>
<path d="M45.7849 178.491H41.5094V182.766H45.7849V178.491Z" fill="white"/>
<path d="M49.9359 178.491H45.6604V182.766H49.9359V178.491Z" fill="white"/>
<path d="M70.6906 178.491H66.4151V182.766H70.6906V178.491Z" fill="white"/>
<path d="M91.4453 178.491H87.1698V182.766H91.4453V178.491Z" fill="white"/>
<path d="M99.7472 178.491H95.4717V182.766H99.7472V178.491Z" fill="white"/>
<path d="M103.898 178.491H99.6226V182.766H103.898V178.491Z" fill="white"/>
<path d="M120.502 178.491H116.226V182.766H120.502V178.491Z" fill="white"/>
<path d="M137.106 178.491H132.83V182.766H137.106V178.491Z" fill="white"/>
<path d="M141.257 178.491H136.981V182.766H141.257V178.491Z" fill="white"/>
<path d="M145.408 178.491H141.132V182.766H145.408V178.491Z" fill="white"/>
<path d="M157.86 178.491H153.585V182.766H157.86V178.491Z" fill="white"/>
<path d="M162.011 178.491H157.736V182.766H162.011V178.491Z" fill="white"/>
<path d="M166.162 178.491H161.887V182.766H166.162V178.491Z" fill="white"/>
<path d="M178.615 178.491H174.34V182.766H178.615V178.491Z" fill="white"/>
<path d="M195.219 178.491H190.943V182.766H195.219V178.491Z" fill="white"/>
<path d="M49.9359 182.641H45.6604V186.917H49.9359V182.641Z" fill="white"/>
<path d="M70.6906 182.641H66.4151V186.917H70.6906V182.641Z" fill="white"/>
<path d="M78.9925 182.641H74.717V186.917H78.9925V182.641Z" fill="white"/>
<path d="M87.2943 182.641H83.0189V186.917H87.2943V182.641Z" fill="white"/>
<path d="M99.7472 182.641H95.4717V186.917H99.7472V182.641Z" fill="white"/>
<path d="M103.898 182.641H99.6226V186.917H103.898V182.641Z" fill="white"/>
<path d="M112.2 182.641H107.925V186.917H112.2V182.641Z" fill="white"/>
<path d="M120.502 182.641H116.226V186.917H120.502V182.641Z" fill="white"/>
<path d="M124.653 182.641H120.377V186.917H124.653V182.641Z" fill="white"/>
<path d="M137.106 182.641H132.83V186.917H137.106V182.641Z" fill="white"/>
<path d="M153.709 182.641H149.434V186.917H153.709V182.641Z" fill="white"/>
<path d="M157.86 182.641H153.585V186.917H157.86V182.641Z" fill="white"/>
<path d="M170.313 182.641H166.038V186.917H170.313V182.641Z" fill="white"/>
<path d="M178.615 182.641H174.34V186.917H178.615V182.641Z" fill="white"/>
<path d="M186.917 182.641H182.642V186.917H186.917V182.641Z" fill="white"/>
<path d="M195.219 182.641H190.943V186.917H195.219V182.641Z" fill="white"/>
<path d="M199.37 182.641H195.094V186.917H199.37V182.641Z" fill="white"/>
<path d="M207.672 182.641H203.396V186.917H207.672V182.641Z" fill="white"/>
<path d="M211.823 182.641H207.547V186.917H211.823V182.641Z" fill="white"/>
<path d="M58.2378 186.792H53.9623V191.068H58.2378V186.792Z" fill="white"/>
<path d="M66.5396 186.792H62.2642V191.068H66.5396V186.792Z" fill="white"/>
<path d="M74.8415 186.792H70.566V191.068H74.8415V186.792Z" fill="white"/>
<path d="M83.1434 186.792H78.8679V191.068H83.1434V186.792Z" fill="white"/>
<path d="M91.4453 186.792H87.1698V191.068H91.4453V186.792Z" fill="white"/>
<path d="M95.5962 186.792H91.3207V191.068H95.5962V186.792Z" fill="white"/>
<path d="M99.7472 186.792H95.4717V191.068H99.7472V186.792Z" fill="white"/>
<path d="M103.898 186.792H99.6226V191.068H103.898V186.792Z" fill="white"/>
<path d="M120.502 186.792H116.226V191.068H120.502V186.792Z" fill="white"/>
<path d="M124.653 186.792H120.377V191.068H124.653V186.792Z" fill="white"/>
<path d="M128.804 186.792H124.528V191.068H128.804V186.792Z" fill="white"/>
<path d="M132.955 186.792H128.679V191.068H132.955V186.792Z" fill="white"/>
<path d="M137.106 186.792H132.83V191.068H137.106V186.792Z" fill="white"/>
<path d="M141.257 186.792H136.981V191.068H141.257V186.792Z" fill="white"/>
<path d="M145.408 186.792H141.132V191.068H145.408V186.792Z" fill="white"/>
<path d="M149.558 186.792H145.283V191.068H149.558V186.792Z" fill="white"/>
<path d="M166.162 186.792H161.887V191.068H166.162V186.792Z" fill="white"/>
<path d="M170.313 186.792H166.038V191.068H170.313V186.792Z" fill="white"/>
<path d="M174.464 186.792H170.189V191.068H174.464V186.792Z" fill="white"/>
<path d="M178.615 186.792H174.34V191.068H178.615V186.792Z" fill="white"/>
<path d="M195.219 186.792H190.943V191.068H195.219V186.792Z" fill="white"/>
<path d="M207.672 186.792H203.396V191.068H207.672V186.792Z" fill="white"/>
<path d="M45.7849 190.943H41.5094V195.219H45.7849V190.943Z" fill="white"/>
<path d="M54.0868 190.943H49.8113V195.219H54.0868V190.943Z" fill="white"/>
<path d="M62.3887 190.943H58.1132V195.219H62.3887V190.943Z" fill="white"/>
<path d="M83.1434 190.943H78.8679V195.219H83.1434V190.943Z" fill="white"/>
<path d="M87.2943 190.943H83.0189V195.219H87.2943V190.943Z" fill="white"/>
<path d="M95.5962 190.943H91.3207V195.219H95.5962V190.943Z" fill="white"/>
<path d="M99.7472 190.943H95.4717V195.219H99.7472V190.943Z" fill="white"/>
<path d="M103.898 190.943H99.6226V195.219H103.898V190.943Z" fill="white"/>
<path d="M108.049 190.943H103.774V195.219H108.049V190.943Z" fill="white"/>
<path d="M112.2 190.943H107.925V195.219H112.2V190.943Z" fill="white"/>
<path d="M116.351 190.943H112.075V195.219H116.351V190.943Z" fill="white"/>
<path d="M120.502 190.943H116.226V195.219H120.502V190.943Z" fill="white"/>
<path d="M128.804 190.943H124.528V195.219H128.804V190.943Z" fill="white"/>
<path d="M141.257 190.943H136.981V195.219H141.257V190.943Z" fill="white"/>
<path d="M153.709 190.943H149.434V195.219H153.709V190.943Z" fill="white"/>
<path d="M157.86 190.943H153.585V195.219H157.86V190.943Z" fill="white"/>
<path d="M162.011 190.943H157.736V195.219H162.011V190.943Z" fill="white"/>
<path d="M166.162 190.943H161.887V195.219H166.162V190.943Z" fill="white"/>
<path d="M170.313 190.943H166.038V195.219H170.313V190.943Z" fill="white"/>
<path d="M174.464 190.943H170.189V195.219H174.464V190.943Z" fill="white"/>
<path d="M178.615 190.943H174.34V195.219H178.615V190.943Z" fill="white"/>
<path d="M182.766 190.943H178.491V195.219H182.766V190.943Z" fill="white"/>
<path d="M186.917 190.943H182.642V195.219H186.917V190.943Z" fill="white"/>
<path d="M191.068 190.943H186.792V195.219H191.068V190.943Z" fill="white"/>
<path d="M195.219 190.943H190.943V195.219H195.219V190.943Z" fill="white"/>
<path d="M203.521 190.943H199.245V195.219H203.521V190.943Z" fill="white"/>
<path d="M207.672 190.943H203.396V195.219H207.672V190.943Z" fill="white"/>
<path d="M45.7849 195.094H41.5094V199.37H45.7849V195.094Z" fill="white"/>
<path d="M49.9359 195.094H45.6604V199.37H49.9359V195.094Z" fill="white"/>
<path d="M54.0868 195.094H49.8113V199.37H54.0868V195.094Z" fill="white"/>
<path d="M74.8415 195.094H70.566V199.37H74.8415V195.094Z" fill="white"/>
<path d="M78.9925 195.094H74.717V199.37H78.9925V195.094Z" fill="white"/>
<path d="M83.1434 195.094H78.8679V199.37H83.1434V195.094Z" fill="white"/>
<path d="M87.2943 195.094H83.0189V199.37H87.2943V195.094Z" fill="white"/>
<path d="M91.4453 195.094H87.1698V199.37H91.4453V195.094Z" fill="white"/>
<path d="M108.049 195.094H103.774V199.37H108.049V195.094Z" fill="white"/>
<path d="M112.2 195.094H107.925V199.37H112.2V195.094Z" fill="white"/>
<path d="M124.653 195.094H120.377V199.37H124.653V195.094Z" fill="white"/>
<path d="M128.804 195.094H124.528V199.37H128.804V195.094Z" fill="white"/>
<path d="M132.955 195.094H128.679V199.37H132.955V195.094Z" fill="white"/>
<path d="M137.106 195.094H132.83V199.37H137.106V195.094Z" fill="white"/>
<path d="M162.011 195.094H157.736V199.37H162.011V195.094Z" fill="white"/>
<path d="M166.162 195.094H161.887V199.37H166.162V195.094Z" fill="white"/>
<path d="M178.615 195.094H174.34V199.37H178.615V195.094Z" fill="white"/>
<path d="M182.766 195.094H178.491V199.37H182.766V195.094Z" fill="white"/>
<path d="M195.219 195.094H190.943V199.37H195.219V195.094Z" fill="white"/>
<path d="M199.37 195.094H195.094V199.37H199.37V195.094Z" fill="white"/>
<path d="M207.672 195.094H203.396V199.37H207.672V195.094Z" fill="white"/>
<path d="M211.823 195.094H207.547V199.37H211.823V195.094Z" fill="white"/>
<path d="M45.7849 199.245H41.5094V203.521H45.7849V199.245Z" fill="white"/>
<path d="M70.6906 199.245H66.4151V203.521H70.6906V199.245Z" fill="white"/>
<path d="M74.8415 199.245H70.566V203.521H74.8415V199.245Z" fill="white"/>
<path d="M83.1434 199.245H78.8679V203.521H83.1434V199.245Z" fill="white"/>
<path d="M99.7472 199.245H95.4717V203.521H99.7472V199.245Z" fill="white"/>
<path d="M103.898 199.245H99.6226V203.521H103.898V199.245Z" fill="white"/>
<path d="M116.351 199.245H112.075V203.521H116.351V199.245Z" fill="white"/>
<path d="M145.408 199.245H141.132V203.521H145.408V199.245Z" fill="white"/>
<path d="M149.558 199.245H145.283V203.521H149.558V199.245Z" fill="white"/>
<path d="M153.709 199.245H149.434V203.521H153.709V199.245Z" fill="white"/>
<path d="M157.86 199.245H153.585V203.521H157.86V199.245Z" fill="white"/>
<path d="M162.011 199.245H157.736V203.521H162.011V199.245Z" fill="white"/>
<path d="M166.162 199.245H161.887V203.521H166.162V199.245Z" fill="white"/>
<path d="M170.313 199.245H166.038V203.521H170.313V199.245Z" fill="white"/>
<path d="M182.766 199.245H178.491V203.521H182.766V199.245Z" fill="white"/>
<path d="M186.917 199.245H182.642V203.521H186.917V199.245Z" fill="white"/>
<path d="M191.068 199.245H186.792V203.521H191.068V199.245Z" fill="white"/>
<path d="M199.37 199.245H195.094V203.521H199.37V199.245Z" fill="white"/>
<path d="M207.672 199.245H203.396V203.521H207.672V199.245Z" fill="white"/>
<path d="M211.823 199.245H207.547V203.521H211.823V199.245Z" fill="white"/>
<path d="M58.2378 203.396H53.9623V207.672H58.2378V203.396Z" fill="white"/>
<path d="M62.3887 203.396H58.1132V207.672H62.3887V203.396Z" fill="white"/>
<path d="M78.9925 203.396H74.717V207.672H78.9925V203.396Z" fill="white"/>
<path d="M83.1434 203.396H78.8679V207.672H83.1434V203.396Z" fill="white"/>
<path d="M91.4453 203.396H87.1698V207.672H91.4453V203.396Z" fill="white"/>
<path d="M95.5962 203.396H91.3207V207.672H95.5962V203.396Z" fill="white"/>
<path d="M99.7472 203.396H95.4717V207.672H99.7472V203.396Z" fill="white"/>
<path d="M108.049 203.396H103.774V207.672H108.049V203.396Z" fill="white"/>
<path d="M116.351 203.396H112.075V207.672H116.351V203.396Z" fill="white"/>
<path d="M145.408 203.396H141.132V207.672H145.408V203.396Z" fill="white"/>
<path d="M166.162 203.396H161.887V207.672H166.162V203.396Z" fill="white"/>
<path d="M170.313 203.396H166.038V207.672H170.313V203.396Z" fill="white"/>
<path d="M182.766 203.396H178.491V207.672H182.766V203.396Z" fill="white"/>
<path d="M186.917 203.396H182.642V207.672H186.917V203.396Z" fill="white"/>
<path d="M195.219 203.396H190.943V207.672H195.219V203.396Z" fill="white"/>
<path d="M211.823 203.396H207.547V207.672H211.823V203.396Z" fill="white"/>
<path d="M49.9359 207.547H45.6604V211.823H49.9359V207.547Z" fill="white"/>
<path d="M54.0868 207.547H49.8113V211.823H54.0868V207.547Z" fill="white"/>
<path d="M58.2378 207.547H53.9623V211.823H58.2378V207.547Z" fill="white"/>
<path d="M62.3887 207.547H58.1132V211.823H62.3887V207.547Z" fill="white"/>
<path d="M70.6906 207.547H66.4151V211.823H70.6906V207.547Z" fill="white"/>
<path d="M74.8415 207.547H70.566V211.823H74.8415V207.547Z" fill="white"/>
<path d="M87.2943 207.547H83.0189V211.823H87.2943V207.547Z" fill="white"/>
<path d="M95.5962 207.547H91.3207V211.823H95.5962V207.547Z" fill="white"/>
<path d="M99.7472 207.547H95.4717V211.823H99.7472V207.547Z" fill="white"/>
<path d="M108.049 207.547H103.774V211.823H108.049V207.547Z" fill="white"/>
<path d="M116.351 207.547H112.075V211.823H116.351V207.547Z" fill="white"/>
<path d="M120.502 207.547H116.226V211.823H120.502V207.547Z" fill="white"/>
<path d="M141.257 207.547H136.981V211.823H141.257V207.547Z" fill="white"/>
<path d="M153.709 207.547H149.434V211.823H153.709V207.547Z" fill="white"/>
<path d="M157.86 207.547H153.585V211.823H157.86V207.547Z" fill="white"/>
<path d="M162.011 207.547H157.736V211.823H162.011V207.547Z" fill="white"/>
<path d="M178.615 207.547H174.34V211.823H178.615V207.547Z" fill="white"/>
<path d="M191.068 207.547H186.792V211.823H191.068V207.547Z" fill="white"/>
<path d="M195.219 207.547H190.943V211.823H195.219V207.547Z" fill="white"/>
<path d="M203.521 207.547H199.245V211.823H203.521V207.547Z" fill="white"/>
<path d="M207.672 207.547H203.396V211.823H207.672V207.547Z" fill="white"/>
<path d="M211.823 207.547H207.547V211.823H211.823V207.547Z" fill="white"/>
<path d="M8.30188 8.30188V37.3585H37.3585V8.30188H8.30188ZM33.2075 33.2075H12.4528V12.4528H33.2075V33.2075Z" fill="white"/>
<path d="M182.642 8.30188V37.3585H211.698V8.30188H182.642ZM207.547 33.2075H186.792V12.4528H207.547V33.2075Z" fill="white"/>
<path d="M8.30188 182.641V211.698H37.3585V182.641H8.30188ZM33.2075 207.547H12.4528V186.792H33.2075V207.547Z" fill="white"/>
<path d="M29.0566 16.6038H16.6038V29.0566H29.0566V16.6038Z" fill="white"/>
<path d="M203.396 16.6038H190.943V29.0566H203.396V16.6038Z" fill="white"/>
<path d="M29.0566 190.943H16.6038V203.396H29.0566V190.943Z" fill="white"/>
</mask>
<g mask="url(#mask0_25_2831)">
<path d="M220 0H0V220H220V0Z" fill="url(#paint0_angular_25_2831)"/>
</g>
<defs>
<radialGradient id="paint0_angular_25_2831" cx="0" cy="0" r="1" gradientUnits="userSpaceOnUse" gradientTransform="translate(1.31082 10.9235) rotate(83.1572) scale(11.0019)">
<stop offset="0.739583" stop-color="#585858"/>
<stop offset="1" stop-color="#518753"/>
</radialGradient>
</defs>
</svg>
