<svg width="38" height="38" viewBox="0 0 38 38" fill="none" xmlns="http://www.w3.org/2000/svg">
<g clip-path="url(#clip0_22_491)">
<path fill-rule="evenodd" clip-rule="evenodd" d="M0 0V38H38V0H0ZM29.4605 13.6348C29.4708 13.8664 29.4761 14.0993 29.4761 14.333C29.4761 21.4656 24.0473 29.6897 14.1196 29.6897C11.0716 29.6897 8.23456 28.7963 5.84607 27.2646C6.26833 27.3148 6.69786 27.3404 7.13364 27.3404C9.66236 27.3404 11.9895 26.4776 13.8368 25.0296C11.475 24.9863 9.48163 23.4258 8.7947 21.2814C9.12443 21.3446 9.46259 21.3785 9.81035 21.3785C10.3026 21.3785 10.7795 21.3122 11.2324 21.1891C8.76338 20.6931 6.9028 18.5118 6.9028 15.8969C6.9028 15.8741 6.9028 15.8514 6.90331 15.8289C7.6309 16.2331 8.46306 16.476 9.34792 16.504C7.89957 15.5362 6.94698 13.884 6.94698 12.0117C6.94698 11.0224 7.21315 10.0954 7.67784 9.29806C10.3398 12.5636 14.3168 14.7123 18.8025 14.9376C18.7104 14.5424 18.6624 14.1304 18.6624 13.7075C18.6624 10.7269 21.0792 8.31039 24.0598 8.31039C25.6123 8.31039 27.015 8.96575 27.9995 10.0146C29.2288 9.77285 30.384 9.32345 31.4268 8.70501C31.024 9.96544 30.1682 11.0229 29.0537 11.6911C30.1456 11.5605 31.1857 11.2703 32.1537 10.841C31.4303 11.9233 30.5153 12.874 29.4605 13.6348Z" fill="white"/>
</g>
<defs>
<clipPath id="clip0_22_491">
<rect width="38" height="38" rx="19" fill="white"/>
</clipPath>
</defs>
</svg>
